<?xml version="1.0" encoding="utf-8"?>
<!-- Generator: Adobe Illustrator 25.3.1, SVG Export Plug-In . SVG Version: 6.00 Build 0)  -->
<svg version="1.1" id="Layer_1" xmlns="http://www.w3.org/2000/svg" xmlns:xlink="http://www.w3.org/1999/xlink" x="0px" y="0px"
	 viewBox="0 0 200 186" style="enable-background:new 0 0 200 186;" xml:space="preserve">
<style type="text/css">
	.st0{fill:#282135;}
	.st1{fill:#BEB8CC;}
</style>
<g>
	<path class="st0" d="M91.1,19.1c0.1-6.8,2.2-11.3,7.5-13.9c1-0.5,1.8-0.5,2.8,0c4.4,2.2,6.8,5.8,7.3,10.6c0.5,4.6-0.4,9-1.9,13.4
		c-0.2,0.5-0.5,0.5-0.9,0.4c-1.3-0.2-2.6-0.4-3.9-0.6c-2.6-0.3-5.1,0.1-7.6,0.5c-0.7,0.1-1-0.1-1.3-0.8
		C91.8,25.3,91.1,21.6,91.1,19.1z"/>
	<path class="st0" d="M53.2,29c0.1-0.5,0.1-1.4,0.3-2.2c0.7-3.4,1.5-4,5.1-4.5c3.7-0.5,6.9,0.6,9.9,2.8c3.8,2.9,6.3,6.8,8.3,11.1
		c0.1,0.3,0.2,0.4-0.1,0.6c-0.1,0.1-0.3,0.3-0.4,0.4c-3.3,2.1-6,4.8-8.1,8.1c-0.4,0.6-0.7,0.6-1.4,0.3c-3.9-1.9-7.4-4.2-10.2-7.5
		C54.5,35.5,53.2,32.7,53.2,29z"/>
	<path class="st0" d="M146.8,29.1c0,4.3-2,7.4-4.7,10.2c-2.7,2.7-5.9,4.7-9.3,6.3c-0.6,0.3-0.7-0.1-0.9-0.4c-1.1-1.2-1.9-2.7-3-3.9
		c-1.4-1.5-3-2.8-4.8-3.9c-0.9-0.6-1.1-1.1-0.5-2.2c2-3.9,4.4-7.5,8-10.3c3.8-2.9,7.9-3.6,12.5-2.1c1,0.3,1.7,0.9,2,2
		C146.5,26.3,146.8,27.8,146.8,29.1z"/>
	<path class="st0" d="M108.9,108.7c-0.4-1,0.3-1.3,1.3-1.5c3.5-0.6,6.7-2,9.7-4c0.9-0.6,1.4-0.5,2.1,0.3c2.9,3.4,5.4,7.1,6.5,11.6
		c1.2,4.7,0.2,8.8-3.1,12.3c-0.5,0.6-1.2,0.9-2,0.8c-4.9-0.2-8.5-2.4-11-6.6C110.2,117.8,109.3,113.4,108.9,108.7z"/>
	<path class="st0" d="M91,109.1c-0.3,4.4-1.2,8.7-3.5,12.6c-2.4,4.1-6,6.2-10.7,6.5c-1,0.1-1.7-0.3-2.4-1c-3.6-4-4.2-8.6-2.5-13.5
		c1.4-4.1,3.8-7.6,6.7-10.8c0.3-0.3,0.5-0.3,0.8-0.1c0.6,0.3,1.1,0.6,1.7,1c2.4,1.6,4.9,2.7,7.7,3.2c0.2,0,0.5,0.1,0.7,0.2
		C91.1,107.5,91.1,107.5,91,109.1z"/>
	<path class="st0" d="M139.5,115.7c-4,0-7.2-1.9-10-4.7c-2.7-2.7-4.7-5.9-6.3-9.3c-0.3-0.6,0.1-0.7,0.4-0.9c1.5-1.2,3.2-2.3,4.6-3.6
		c1.4-1.4,2.4-3,3.6-4.6c0.4-0.5,0.7-0.6,1.3-0.3c4.1,2,7.9,4.5,10.7,8.1c3,3.9,3.8,8.1,2.1,12.7c-0.3,0.9-0.8,1.4-1.7,1.7
		C142.7,115.3,141.1,115.7,139.5,115.7z"/>
	<path class="st0" d="M141.7,78c2.9,0.3,6.6,1,10.1,2.8c4.6,2.4,7.2,6,7.6,11.3c0.1,1-0.2,1.7-0.9,2.4c-4.4,4-9.4,4.3-14.7,2.2
		c-3.7-1.4-6.8-3.7-9.7-6.3c-0.3-0.3-0.3-0.5-0.1-0.8c0.3-0.5,0.6-1.1,0.9-1.6c1.6-2.4,2.7-5,3.3-7.9c0-0.1,0-0.1,0.1-0.2
		C138.6,77.8,138.6,77.8,141.7,78z"/>
	<path class="st0" d="M91,28.7c0.1,1.6,0.1,1.6-1.4,1.9c-3.3,0.7-6.4,1.9-9.2,3.8C79,35.3,79,35.3,77.9,34
		c-3.2-3.6-5.7-7.6-6.6-12.3c-0.9-4.4,0.4-8.2,3.4-11.5c0.6-0.6,1.3-0.7,2-0.7C82,9.8,85.6,12.4,88,17C89.9,20.6,90.7,24.6,91,28.7z
		"/>
	<path class="st0" d="M60.3,115.7c-1.5,0-3-0.4-4.5-0.9c-0.9-0.3-1.4-0.9-1.7-1.7c-1.9-5.3-0.5-9.9,3.2-14c2.8-3.1,6.3-5.2,10-7
		c0.5-0.2,0.6,0,0.8,0.3c1,1.3,2,2.6,3,3.9c1.4,1.7,3.1,2.9,4.9,4.1c0.9,0.6,1,1,0.5,2c-2.1,4.1-4.6,7.8-8.3,10.6
		C65.9,114.7,63.3,115.7,60.3,115.7z"/>
	<path class="st0" d="M50.4,97.9c-3.7,0-6.6-1.4-9.1-3.8c-0.7-0.6-0.6-1.4-0.6-2.3c0.4-5.9,3.8-9.5,8.9-11.7
		c3.5-1.5,7.3-2.1,11.1-2.4c0.7,0,0.8,0.4,0.9,0.8c0.5,1.9,0.9,3.9,1.7,5.7c0.7,1.7,1.8,3.2,2.7,4.8c0.4,0.6,0.3,1-0.3,1.5
		c-3.4,3-7.1,5.5-11.6,6.7C52.7,97.7,51.4,97.9,50.4,97.9z"/>
	<path class="st0" d="M108.9,29c0.3-4.5,1.1-8.5,3.1-12.2c2.4-4.5,6.1-7,11.2-7.3c0.9,0,1.6,0.2,2.2,0.9c3.2,3.5,4.2,7.5,3.1,12
		c-1.2,4.8-3.9,8.8-7.2,12.4c-0.2,0.3-0.4,0.3-0.7,0.2c-0.4-0.2-0.8-0.4-1.1-0.6c-2.8-2-5.8-3.2-9.2-3.8
		C109.3,30.4,108.6,30.1,108.9,29z"/>
	<path class="st0" d="M59.6,59.9c-5.3-0.4-10.4-1.5-14.7-5.1c-3-2.5-4.2-5.8-4.3-9.6c0-0.8,0.4-1.3,0.9-1.8c4-3.7,8.7-4.3,13.7-2.6
		c4.1,1.4,7.5,3.8,10.7,6.6c0.3,0.3,0.3,0.5,0.1,0.8c-0.3,0.5-0.5,1-0.8,1.4c-1.7,2.5-2.9,5.2-3.4,8.2c-0.1,0.3-0.2,0.7-0.3,1
		c-0.1,0.9-0.5,1.3-1.5,1C60,59.8,59.8,59.9,59.6,59.9z"/>
	<path class="st0" d="M159.4,45.4c-0.2,4.9-2.4,8.6-6.6,11.1c-4.2,2.4-8.8,3.2-13.6,3.5c-0.6,0-0.6-0.4-0.6-0.7
		c-0.4-1.3-0.6-2.6-1-3.9c-0.7-2.4-1.9-4.4-3.2-6.4c-0.5-0.8-0.5-1.3,0.3-2c3.5-3,7.3-5.5,11.9-6.6c4.6-1.1,8.6,0,12,3.1
		C159.3,44.1,159.4,44.4,159.4,45.4z"/>
	<path class="st0" d="M49.7,77.8c-4.2-0.1-8-0.9-11-4c-1.1-1.2-2-2.5-2.6-4c-0.3-0.7-0.3-1.3,0-2c2.5-5.3,6.8-7.6,12.4-7.8
		c4-0.1,7.8,0.7,11.6,2c0.5,0.2,0.7,0.3,0.6,0.9c-0.2,1.2-0.3,2.3-0.5,3.5c-0.4,2.6,0,5.2,0.5,7.7c0.2,1-0.1,1.4-1.1,1.8
		C56.3,77,53,77.7,49.7,77.8z"/>
	<path class="st0" d="M108.9,118.8c-0.1,6.8-2.2,11.3-7.5,13.8c-1,0.5-1.9,0.4-2.8,0c-5.2-2.6-7.3-7-7.4-12.6
		c-0.1-3.9,0.8-7.6,2-11.3c0.2-0.5,0.4-0.6,0.9-0.6c1,0.1,2,0.3,3.1,0.5c2.5,0.4,5,0.2,7.5-0.3c0.1,0,0.3-0.1,0.4-0.1
		c1.6-0.2,1.5-0.2,2.1,1.3C108.3,112.9,108.9,116.4,108.9,118.8z"/>
	<path class="st0" d="M150.5,60c3.4,0,6.7,0.6,9.5,2.7c1.8,1.4,3,3.2,4,5.2c0.3,0.7,0.3,1.3,0,1.9c-2.1,4.5-5.6,7.1-10.6,7.7
		c-4.7,0.6-9.1-0.4-13.5-1.9c-0.4-0.2-0.6-0.4-0.5-0.8c0.1-0.7,0.2-1.4,0.3-2.1c0.7-3.2,0.3-6.4-0.3-9.5c-0.1-0.8,0.1-1.1,0.9-1.3
		C143.5,60.8,146.9,60,150.5,60z"/>
	<path class="st0" d="M51.3,180.8c-1.8-0.7-3.3-1.9-4.9-3c-0.4-0.2-0.2-0.7-0.2-1.1c0-7.8,0-15.5,0-23.3c0-2.7-0.6-3.4-3.2-3.8
		c-0.2,0-0.5,0.1-0.5-0.3c0-0.3,0.2-0.3,0.5-0.3c5.3,0.2,10.7-0.4,16,0.4c1,0.2,1.9,0.5,2.8,0.9c5.4,2.6,6,9.8,1.1,13.3
		c-1.5,1.1-3.3,1.8-5.4,2.1c4.3,1.1,5.7,4.5,7.1,7.8c0.5,1.3,1,2.7,1.5,4c0.6,1.7,1.8,2.8,3.7,2.9c0.3,0,0.8-0.1,0.8,0.3
		c0,0.5-0.5,0.3-0.8,0.3c-2.1,0-4.2,0-6.3,0c-1,0-1.8-0.4-2.3-1.2c-1-1.4-1.4-3-1.9-4.6c-0.6-2.1-1.2-4.2-2.2-6.1
		c-1.1-2.2-2.8-3.5-5.5-3.3c-0.6,0-0.7,0.2-0.7,0.7c0,4,0,8,0,12C50.8,179.4,51.1,180.1,51.3,180.8L51.3,180.8z M50.8,158.6
		c0,1.9,0,3.8,0,5.8c0,0.8,0.2,1,1,0.9c0.8-0.1,1.7,0,2.6,0c2.7-0.1,4.8-1.6,5.8-4.1c0.8-2.2,0.8-4.5,0.4-6.7
		c-0.6-3.5-3.1-5.1-6.8-4.7c-2,0.2-2.8,1.3-2.9,3.3C50.8,154.9,50.8,156.8,50.8,158.6z"/>
	<path class="st0" d="M175.9,149c1.9,0.3,3.6,0.7,5.3,0.9c0.7,0.1,1,0.4,1.2,1.1c3.3,8.3,6.6,16.6,9.9,24.9c0.4,1,0.9,2,1.3,2.9
		c0.4,0.8,1,1.6,2.1,1.6c0.2,0,0.4,0.1,0.4,0.4c0,0.3-0.3,0.3-0.5,0.3c-3.4,0-6.8,0-10.2,0c-0.2,0-0.5,0-0.4-0.3
		c0-0.2,0.2-0.3,0.4-0.3c2.6-0.9,3-1.8,2-4.4c-0.8-2-1.6-4.1-2.4-6.2c-0.2-0.5-0.4-0.6-0.9-0.6c-3.3,0-6.6,0-9.9,0
		c-0.4,0-0.7,0.1-0.8,0.5c-0.6,1.8-1.5,3.5-1.9,5.3c-0.6,2.9,0.7,4.9,3.6,5.4c0.3,0,0.8-0.1,0.7,0.4c-0.1,0.5-0.5,0.2-0.8,0.2
		c-3.1,0-6.2,0-9.3,0c-0.3,0-0.7,0.2-0.8-0.3c0-0.4,0.4-0.3,0.7-0.4c1.4-0.2,2.4-1.1,3.2-2.2c0.8-1.1,1.3-2.3,1.8-3.5
		c2.7-6.6,5.3-13.2,7.8-20c0.3-0.8,0.3-1.4-0.1-2.1C177.6,151.5,177.3,150.1,175.9,149z M179.2,154.9c-1.8,4.5-3.4,8.8-5.1,13
		c-0.3,0.8,0.2,0.6,0.6,0.6c3,0,6,0,9,0c0.9,0,0.8-0.3,0.6-0.9c-1.1-2.7-2.1-5.3-3.2-8C180.5,158.1,179.9,156.6,179.2,154.9z"/>
	<path class="st0" d="M89,149c1.8,0.3,3.5,0.6,5.1,0.9c0.7,0.1,1.1,0.4,1.4,1.2c3.3,8.3,6.5,16.5,9.8,24.7c0.4,1.1,0.9,2.1,1.4,3.1
		c0.4,0.8,0.9,1.5,2,1.6c0.2,0,0.5,0.1,0.4,0.4c0,0.3-0.3,0.3-0.5,0.3c-3.3,0-6.7,0-10,0c-0.2,0-0.5,0.1-0.5-0.2
		c-0.1-0.4,0.3-0.4,0.5-0.4c2.3-0.6,2.9-1.7,2.1-3.9c-0.8-2.2-1.7-4.4-2.6-6.7c-0.2-0.5-0.4-0.6-0.9-0.6c-3.3,0-6.6,0-9.8,0
		c-0.3,0-0.7-0.1-0.9,0.4c-0.7,1.9-1.6,3.7-2,5.7c-0.5,2.7,0.9,4.6,3.6,5c0.2,0,0.4,0,0.6,0.1c0.1,0,0.2,0.2,0.2,0.3
		c0,0.2-0.1,0.2-0.3,0.2c0,0-0.1,0-0.1,0c-3.4,0-6.8,0-10.2,0c-0.2,0-0.4,0-0.4-0.3c0-0.2,0.2-0.3,0.4-0.3c2.6-0.3,3.8-2.3,4.7-4.4
		c3-7.1,5.7-14.2,8.4-21.4c0.3-0.7,0.3-1.3-0.1-1.9C90.6,151.6,90.3,150.1,89,149z M92.3,154.9c-1.8,4.5-3.5,8.8-5.2,13.1
		c-0.3,0.8,0.3,0.6,0.6,0.6c3,0,6,0,9,0c0.8,0,0.9-0.2,0.6-0.9c-1.2-3.1-2.4-6.1-3.6-9.2C93.2,157.4,92.8,156.3,92.3,154.9z"/>
	<path class="st0" d="M14.7,149c1.8,0.3,3.4,0.6,5.1,0.9c0.8,0.1,1.2,0.5,1.5,1.2c3.3,8.3,6.6,16.6,9.9,24.8c0.4,1,0.8,1.9,1.3,2.8
		c0.4,0.9,1,1.7,2.1,1.7c0.2,0,0.5,0.1,0.4,0.4c0,0.3-0.3,0.2-0.5,0.2c-3.4,0-6.8,0-10.2,0c-0.2,0-0.5,0-0.4-0.3
		c0-0.2,0.2-0.3,0.4-0.3c2.6-0.9,3-1.8,2-4.4c-0.8-2-1.6-4-2.4-6.1c-0.2-0.6-0.5-0.7-1.1-0.7c-3.2,0-6.5,0-9.7,0
		c-0.4,0-0.7,0-0.9,0.5c-0.6,1.7-1.4,3.3-1.8,5c-0.8,3.1,0.5,5.1,3.7,5.7c0.3,0,0.7,0,0.6,0.4c0,0.4-0.4,0.2-0.6,0.2
		c-3.2,0-6.4,0-9.6,0c-0.2,0-0.5,0.2-0.6-0.2c-0.1-0.4,0.2-0.4,0.5-0.4c1.8-0.2,2.9-1.3,3.7-2.8c1.3-2.3,2.1-4.8,3.1-7.2
		c2.1-5.2,4.1-10.4,6.1-15.7c0.3-0.7,0.3-1.3-0.1-2C16.4,151.6,16.1,150.1,14.7,149z M18,154.9c-1.7,4.4-3.4,8.7-5.1,12.9
		c-0.2,0.4-0.3,0.7,0.4,0.7c3.1,0,6.3,0,9.4,0c0.5,0,0.6-0.2,0.4-0.6c-0.6-1.3-1.1-2.7-1.6-4.1C20.4,160.9,19.2,158,18,154.9z"/>
	<path class="st0" d="M152.7,180.8c-0.4,0.3-0.6-0.1-0.8-0.2c-1.2-0.7-2.4-1.6-3.6-2.3c-0.6-0.3-0.7-0.7-0.7-1.4c0-2.2,0-4.5,0-6.7
		c0-0.6-0.1-1.2-0.4-1.7c-2.9-5.4-5.8-10.8-8.6-16.2c-0.7-1.3-1.5-2.3-3.1-2.5c-0.2,0-0.5-0.1-0.5-0.4c0.1-0.3,0.3-0.3,0.5-0.3
		c3.3,0,6.7,0,10,0c0.2,0,0.5,0,0.5,0.3c0,0.4-0.3,0.3-0.6,0.3c-3,0.3-3.1,0.5-1.7,3.1c2.6,4.7,5.1,9.5,7.7,14.3
		c0.5-0.3,0.6-0.9,0.8-1.3c1.6-3.1,3.1-6.2,4.6-9.3c0.6-1.1,0.9-2.3,0.9-3.6c0-1.7-0.8-2.6-2.4-3c-0.3-0.1-0.6-0.1-0.8-0.1
		c-0.2,0-0.4-0.1-0.4-0.3c0-0.3,0.2-0.3,0.4-0.3c0.1,0,0.3,0,0.4,0c2.8,0,5.7,0,8.5,0c0.3,0,0.7-0.2,0.8,0.3
		c0.1,0.5-0.4,0.4-0.7,0.5c-1.6,0.4-2.7,1.5-3.6,2.7c-0.9,1.1-1.7,2.4-2.3,3.7c-1.8,3.6-3.6,7.3-5.4,10.9c-0.2,0.5-0.4,1-0.4,1.5
		c0,3.3,0,6.7,0,10C152.2,179.4,152.2,180.1,152.7,180.8L152.7,180.8z"/>
	<path class="st0" d="M120.9,149.2c1.5,0.9,2.9,1.9,4.4,2.8c0.6,0.3,0.5,0.8,0.5,1.3c0,7.7,0,15.4,0,23.1c0,0.5,0,1.1,0.1,1.6
		c0.1,1.5,0.9,2.3,2.4,2.5c0.3,0,0.9-0.1,0.8,0.4c0,0.4-0.5,0.2-0.8,0.2c-3.2,0-6.3,0-9.5,0c-0.3,0-0.7,0.3-0.8-0.2
		c0-0.5,0.5-0.3,0.7-0.4c1.7-0.3,2.4-0.9,2.5-2.6c0-0.4,0-0.7,0-1.1c0-8.2,0-16.4,0-24.7C121.3,151.2,121.2,150.2,120.9,149.2z"/>
	<path class="st1" d="M83.5,41.5c2.9-0.1,4.7,1.5,6.1,3.6c0.9,1.4,1.5,2.9,2,4.6c0.2,0.6,0.1,0.9-0.5,1.1c-1.7,0.7-3.1,1.7-4.4,2.9
		c-0.3,0.3-0.5,0.5-1,0.1c-2.6-1.9-4.7-4.2-5.2-7.5c-0.3-1.6,0.3-3.1,1.2-4.4C82.1,41.2,82.9,41.5,83.5,41.5z"/>
	<path class="st1" d="M126.3,59.2c2.3,0,4.1,0.9,5.5,2.7c0.3,0.4,0.4,0.9,0.2,1.4c-0.6,2.4-2.2,3.9-4.5,4.7
		c-2.2,0.7-4.4,0.8-6.6,0.4c-0.6-0.1-0.7-0.6-0.7-0.9c0-1.8-0.3-3.5-1-5.1c-0.2-0.5-0.1-0.8,0.4-1.1
		C121.6,60.2,123.8,59.2,126.3,59.2z"/>
	<path class="st1" d="M84.1,96.3c-1.9,0.1-2.7-0.5-3.2-1.8c-1-2.6-0.3-4.8,1.2-6.9c1-1.5,2.3-2.6,3.7-3.7c0.4-0.3,0.6-0.2,0.9,0.1
		c1.2,1.4,2.8,2.3,4.5,3c0.4,0.2,0.7,0.3,0.5,0.9c-0.8,2.8-1.9,5.5-4.4,7.4C86.1,96.1,84.9,96.2,84.1,96.3z"/>
	<path class="st1" d="M119.6,45.5c-0.2,3.2-1.8,5.4-3.9,7.2c-1.7,1.5-1.8,1.4-3.5-0.1c-0.9-0.8-2-1.3-3-1.8
		c-0.6-0.3-0.8-0.6-0.6-1.3c0.9-2.8,2-5.4,4.5-7.2c1.4-1,3-1,4.6-0.9c0.3,0,0.6,0.2,0.8,0.5C119.2,43.1,119.5,44.4,119.6,45.5z"/>
	<path class="st1" d="M73.1,59.2c3.2,0.1,5.3,1,7.4,2.2c0.5,0.3,0.5,0.6,0.3,1.1c-0.7,1.5-1.1,3.2-1,4.9c0,0.7-0.3,1.1-1.1,1.2
		c-2.4,0.3-4.8,0.2-7.1-0.8c-1.8-0.8-3-2.2-3.6-4.1c-0.2-0.7-0.1-1.2,0.3-1.8C69.8,60,71.6,59.1,73.1,59.2z"/>
	<path class="st1" d="M127.4,85.5c0.3,1.3-0.4,1.9-1.6,2.4c-2.5,1.1-4.7,0.4-6.8-0.9c-1.5-1-2.8-2.2-3.8-3.7c-0.4-0.5-0.5-0.8,0-1.2
		c1.3-1.2,2.2-2.6,2.9-4.2c0.2-0.6,0.5-0.8,1.2-0.6c2.3,0.7,4.5,1.6,6.2,3.3C126.8,82,127.5,83.5,127.4,85.5z"/>
	<path class="st1" d="M119.6,92.1c-0.1,0.6-0.1,1.1-0.2,1.6c-0.8,2.7-1.6,3.1-4.9,2.3c-2.6-0.7-3.9-2.9-5.1-5.1
		c-0.1-0.1-0.1-0.3-0.1-0.4c-0.4-0.9-1-1.9-0.9-2.8c0.1-1.1,1.5-1,2.3-1.5c0.9-0.6,1.8-1.3,2.6-2.1c0.3-0.3,0.5-0.5,1-0.1
		c1.9,1.5,3.6,3.2,4.6,5.5C119.4,90.3,119.5,91.2,119.6,92.1z"/>
	<path class="st1" d="M72.6,85.3c-0.1-3.1,1.7-4.8,3.8-6.2c1.3-0.9,2.8-1.4,4.3-1.8c0.5-0.1,0.8-0.1,1.1,0.4c0.7,1.7,1.7,3.2,3,4.5
		c0.3,0.3,0.4,0.5,0.1,0.9c-1.9,2.6-4.2,4.7-7.5,5.2c-1.6,0.3-3.1-0.3-4.4-1.1C72.3,86.8,72.7,85.9,72.6,85.3z"/>
	<path class="st1" d="M127.4,52.4c0.1,3.1-1.7,4.9-4,6.3c-1.3,0.8-2.7,1.3-4.1,1.7c-0.5,0.1-0.9,0.1-1.1-0.5c-0.6-1.8-1.8-3.1-3-4.5
		c-0.2-0.2-0.5-0.4-0.2-0.8c1.8-2.3,3.8-4.4,6.8-5.1c1.8-0.5,3.4-0.1,5,0.8C127.7,50.9,127.3,51.8,127.4,52.4z"/>
	<path class="st1" d="M72.6,52.5c0-2,1.1-2.9,3.3-3.2c2.5-0.3,4.6,0.8,6.4,2.3c1,0.8,1.8,1.8,2.6,2.8c0.3,0.3,0.3,0.6,0,0.9
		c-1.3,1.4-2.5,2.8-3.1,4.7c-0.1,0.3-0.4,0.5-0.8,0.4c-2.8-0.7-5.4-1.8-7.2-4.2C72.8,55,72.6,54.1,72.6,52.5z"/>
	<path class="st1" d="M99.6,45.5c-0.1,0.9,0.2,1.9-0.2,2.7c-0.5,1.1-1.7,0.3-2.5,0.5c-1.1,0.3-2.2,0.5-3.3,0.9
		c-0.4,0.2-0.9,0.2-1.1-0.2c-1.7-3-2.8-6-1.7-9.5c0.1-0.2,0.2-0.5,0.3-0.7c2.1-3.7,4.7-2.7,7,0.2C99.5,41.1,99.7,43.3,99.6,45.5z"/>
	<path class="st1" d="M100.5,45.5c-0.2-2.1,0.2-4,1.3-5.8c1-1.6,2.5-2.4,4.2-2.8c0.4-0.1,0.7,0.1,1,0.3c2.4,1.6,3,4,2.7,6.7
		c-0.2,1.9-0.9,3.7-2,5.4c-0.3,0.5-0.7,0.7-1.3,0.5c-1.6-0.6-3.2-1.1-5-0.9c-0.7,0.1-0.9-0.4-0.9-0.9
		C100.4,47,100.5,46.3,100.5,45.5z"/>
	<path class="st1" d="M100.4,92.1c0-2.9,0-2.9,2.8-3.1c1-0.1,1.9-0.3,2.8-0.8c0.8-0.4,1.3-0.3,1.8,0.6c1.4,2.7,2.3,5.4,1.6,8.5
		c-0.3,1.5-1.4,2.5-2.5,3.5c-0.5,0.4-1,0.2-1.5,0.1c-2.8-0.8-4.8-3.5-4.9-6.7C100.4,93.4,100.4,92.7,100.4,92.1z"/>
	<path class="st1" d="M123.5,69.3c1.5-0.1,2.9,0.2,4.3,0.7c2.1,0.8,3.5,2.2,4.2,4.4c0.2,0.7,0,1.3-0.4,1.8c-1.9,2.3-4.4,2.6-7.1,2.2
		c-1.7-0.3-3.3-1.1-4.9-1.9c-0.6-0.3-0.6-0.6-0.4-1.2c0.6-1.6,1.1-3.2,0.9-4.9c0-0.5,0.2-0.9,0.8-1
		C121.8,69.2,122.6,69.3,123.5,69.3z"/>
	<path class="st1" d="M99.6,92.4c0,2.6-0.4,5.1-2.5,7c-0.8,0.7-1.7,1.2-2.7,1.4c-0.6,0.2-1.2,0-1.8-0.5c-2.7-2.2-2.9-5.5-1.6-9.1
		c0.3-1,0.8-1.9,1.3-2.8c0.3-0.5,0.6-0.7,1.2-0.5c1.6,0.7,3.4,1.1,5.2,1.1c0.6,0,0.7,0.4,0.8,0.8C99.6,90.7,99.6,91.6,99.6,92.4z"/>
	<path class="st1" d="M73.6,78.5c-2.1,0.2-3.7-0.8-5.1-2.4c-0.5-0.5-0.6-1.1-0.4-1.8c0.9-2.9,3.5-4.9,6.9-5c1.2-0.1,2.5,0,3.7,0
		c0.8,0,1.2,0.5,1.2,1.3c-0.1,1.6,0.4,3.2,0.9,4.7c0.2,0.6,0.1,0.9-0.4,1.2C78.3,77.6,76.2,78.6,73.6,78.5z"/>
	<path class="st0" d="M51.3,180.9c0,0,0.1,0.1,0.1,0.1C51.3,181,51.2,181,51.3,180.9C51.3,180.8,51.3,180.9,51.3,180.9z"/>
	<path class="st0" d="M152.7,180.8c0,0.1,0,0.1,0,0.2c0,0-0.1,0-0.1,0C152.5,180.9,152.6,180.8,152.7,180.8
		C152.7,180.8,152.7,180.8,152.7,180.8z"/>
</g>
<g>
</g>
<g>
</g>
<g>
</g>
<g>
</g>
<g>
</g>
<g>
</g>
</svg>
