<?xml version="1.0" encoding="utf-8"?>
<!-- Generator: Adobe Illustrator 25.3.1, SVG Export Plug-In . SVG Version: 6.00 Build 0)  -->
<svg version="1.1" id="Layer_1" xmlns="http://www.w3.org/2000/svg" xmlns:xlink="http://www.w3.org/1999/xlink" x="0px" y="0px"
	 viewBox="0 0 200 181" style="enable-background:new 0 0 200 181;" xml:space="preserve">
<style type="text/css">
	.st0{fill:#1F1B35;}
	.st1{fill:#26223B;}
	.st2{fill:#FEFEFE;}
</style>
<g>
	<path class="st0" d="M141.8,59.4c-1,0-2.5-0.2-4-0.3c-1-0.1-1.3-0.5-1.3-1.4c0-1.5-0.1-3.1-0.3-4.6c-0.3-1.9-1.1-3.6-1.7-5.4
		c-0.2-0.6-0.1-0.8,0.4-1.2c3.2-1.9,6.5-3.3,10.2-3.9c4.9-0.7,9.1,0.4,12.2,4.5c0.7,0.9,0.9,1.7,0.6,2.8c-1.4,5.2-5.1,7.8-10.2,8.9
		C146,59.3,144.2,59.4,141.8,59.4z"/>
	<path class="st0" d="M57.4,59.4c-3.3,0-6.5-0.5-9.4-1.9c-3.5-1.7-5.4-4.6-6.2-8.3c-0.1-0.7,0.1-1.1,0.5-1.6c2.7-3.7,6.3-5.3,10.9-5
		c4.4,0.3,8.3,2,12,4.2c0.4,0.3,0.4,0.5,0.3,0.9c-0.4,1.2-0.9,2.3-1.2,3.5c-0.6,2.1-0.8,4.2-0.8,6.4c0,1.5,0,1.5-1.5,1.7
		C60.3,59.3,58.9,59.4,57.4,59.4z"/>
	<path class="st0" d="M129.4,10.2c0.1,0,0.4,0,0.6,0c2.5-0.3,3.8,1.1,4.6,3.3c1.5,3.9,0.9,7.5-1.1,11c-2,3.4-4.8,6.1-7.9,8.5
		c-0.4,0.3-0.6,0.2-0.8-0.1c-0.6-0.5-1.2-1.1-1.8-1.7c-1.9-1.8-4-3-6.4-4c-1.6-0.7-1.5-0.7-1.1-2.3c1-3.9,2.7-7.6,5.4-10.7
		C123.2,11.6,125.5,10.5,129.4,10.2z"/>
	<path class="st0" d="M100.5,17.7c0-3.6,0.5-6.9,2.1-9.9c1.7-3.3,4.5-5.2,8.1-6c0.8-0.2,1.4,0.2,2,0.6c4,3,5.3,7,4.7,11.8
		c-0.5,4-2.1,7.5-4.1,11c-0.3,0.4-0.5,0.4-0.9,0.3c-1.7-0.5-3.3-1.3-5-1.6c-1.9-0.4-3.8-0.3-5.7-0.5c-0.6-0.1-0.8-0.2-0.8-0.8
		C100.7,20.8,100.4,19.2,100.5,17.7z"/>
	<path class="st0" d="M69.6,10.2c3.6-0.2,6.7,1.1,9.1,3.7c3.2,3.4,4.9,7.6,6,12.1c0.1,0.5-0.2,0.6-0.5,0.8c-1.4,0.8-2.9,1.3-4.2,2.1
		c-1.6,1-3,2.3-4.4,3.6c-0.6,0.6-1.1,0.7-1.9,0.1c-3.3-2.6-6.2-5.5-8.1-9.3c-1.8-3.7-1.8-7.4,0.2-11.1c0.7-1.3,1.6-1.9,3-1.9
		C69.1,10.2,69.3,10.2,69.6,10.2z"/>
	<path class="st0" d="M135.5,102.2c0,2.4-0.8,4.5-2,6.5c-0.3,0.6-0.8,0.9-1.5,1c-4.2,0.7-7.8-0.4-10.7-3.5c-3-3.1-4.7-6.8-5.8-10.9
		c-0.5-1.8-0.5-1.9,1.2-2.6c2.8-1.1,5.2-2.8,7.3-4.9c1.1-1.1,1.1-1.1,2.4-0.1c3.5,2.7,6.4,5.8,8.2,9.9
		C135.1,99,135.4,100.6,135.5,102.2z"/>
	<path class="st0" d="M99.3,18.3c0,1-0.3,2.7-0.4,4.4c0,0.5-0.3,0.5-0.7,0.6c-1.8,0.2-3.5,0.1-5.3,0.4c-1.8,0.4-3.6,1.1-5.3,1.7
		c-0.6,0.2-0.9,0.1-1.2-0.5c-1.9-3.3-3.4-6.8-3.9-10.7c-0.6-4.7,0.7-8.7,4.6-11.7c0.8-0.6,1.5-0.8,2.5-0.5c5.2,1.3,7.9,4.9,9.1,9.9
		C99.2,13.8,99.3,15.7,99.3,18.3z"/>
	<path class="st0" d="M99.3,102.2c0,3.8-0.5,7.2-2.3,10.4c-1.7,3.1-4.4,4.8-7.8,5.6c-0.8,0.2-1.4,0-2-0.5c-3.9-2.9-5.4-6.9-4.8-11.6
		c0.4-4,2.1-7.7,4.1-11.1c0.3-0.6,0.8-0.4,1.2-0.2c1.5,0.5,2.9,1.1,4.5,1.5c1.9,0.5,3.8,0.4,5.8,0.5c0.7,0,1,0.3,1,1
		C99.1,99.3,99.3,100.8,99.3,102.2z"/>
	<path class="st0" d="M100.5,101.8c0-1.1,0.3-2.8,0.4-4.5c0.1-0.6,0.5-0.5,0.8-0.6c2-0.2,4-0.1,6-0.6c1.4-0.4,2.8-0.9,4.2-1.4
		c0.8-0.3,1.2-0.2,1.7,0.6c1.9,3.3,3.3,6.7,3.8,10.5c0.6,4.7-0.8,8.7-4.7,11.7c-0.8,0.6-1.6,0.7-2.5,0.5c-4.8-1.3-7.6-4.5-8.8-9.2
		C100.7,106.7,100.5,104.5,100.5,101.8z"/>
	<path class="st0" d="M64.4,101.4c0-2.6,1.5-5.5,3.5-8.2c1.8-2.4,4-4.4,6.3-6.1c0.4-0.3,0.6-0.3,0.9,0c0.3,0.3,0.6,0.5,0.9,0.8
		c2.1,2.1,4.5,3.7,7.3,4.9c1.6,0.6,1.5,0.7,1.1,2.3c-1,3.9-2.7,7.6-5.4,10.7c-3,3.3-6.7,4.6-11,3.9c-0.7-0.1-1.2-0.4-1.6-1
		C65.1,106.7,64.3,104.6,64.4,101.4z"/>
	<path class="st0" d="M50.1,29.8c0-2.7,0.3-3.2,3.2-4.4c3.5-1.5,6.9-1.1,10.2,0.6c3.9,2,6.8,5,9.3,8.4c0.3,0.4,0.1,0.6-0.1,0.8
		c-0.5,0.6-1.1,1.2-1.7,1.8c-1.8,1.9-3,4.1-4,6.5c-0.6,1.4-0.7,1.4-2.2,1c-4-1.1-7.8-2.7-10.9-5.6C51.5,36.6,50,33.7,50.1,29.8z"/>
	<path class="st0" d="M149.7,30.3c0.1,3.5-1.4,6.3-3.9,8.7c-3.1,2.8-6.8,4.4-10.7,5.5c-1.7,0.5-1.8,0.5-2.4-1.1
		c-1.1-2.9-2.9-5.3-5-7.4c-1-1.1-1-1.1-0.1-2.3c2.6-3.4,5.6-6.3,9.5-8.1c3.6-1.6,7.1-1.6,10.7,0.3c1.3,0.7,2,1.5,2,3
		C149.7,29.3,149.7,29.8,149.7,30.3z"/>
	<path class="st0" d="M149.7,89.5c-0.1,3.8-0.1,3.8-3.3,5.2c-3.6,1.6-7,1-10.4-0.7c-3.8-2-6.6-5-9.2-8.3c-0.2-0.3-0.1-0.5,0.1-0.8
		c0.6-0.7,1.3-1.4,1.9-2.1c1.6-1.8,2.8-3.8,3.7-6.1c0.2-0.4,0.4-0.8,0.6-1.2c0.1-0.2,0.3-0.4,0.6-0.3c4.4,1.1,8.6,2.8,12,6
		C148.4,83.5,149.8,86.3,149.7,89.5z"/>
	<path class="st0" d="M57.9,95.6c-2.6,0-4.8-0.8-6.8-2c-0.5-0.3-0.8-0.8-0.9-1.4c-0.8-4.7,0.7-8.6,4.4-11.6
		c3.3-2.7,7.2-4.3,11.3-5.3c0.4-0.1,0.5,0.1,0.7,0.3c0.2,0.4,0.5,0.9,0.6,1.3c1.1,2.6,2.6,4.8,4.5,6.8c1.5,1.5,1.4,1.5,0.2,3.1
		c-2.8,3.5-5.9,6.5-10.2,8.1C60.4,95.3,59.1,95.6,57.9,95.6z"/>
	<path class="st0" d="M142.1,60.6c3.7,0,7,0.5,10.1,2.1c3.3,1.8,5.1,4.6,5.9,8.2c0.1,0.7-0.1,1.1-0.5,1.6c-2.7,3.7-6.4,5.3-11,5
		c-4.3-0.3-8.2-2-11.9-4.2c-0.4-0.2-0.4-0.5-0.3-0.8c0.1-0.4,0.3-0.9,0.4-1.3c1.2-2.7,1.7-5.6,1.7-8.6c0-1.5,0-1.5,1.5-1.7
		C139.5,60.7,140.9,60.6,142.1,60.6z"/>
	<path class="st0" d="M57.6,60.6c1.5-0.1,3.1,0.2,4.6,0.3c0.9,0.1,1.1,0.5,1.1,1.2c0,1.5,0.1,3.1,0.3,4.6c0.3,1.8,0.9,3.5,1.6,5.1
		c0.3,0.8,0.2,1.3-0.7,1.8c-3.5,1.9-7,3.4-11,3.8c-4.7,0.4-8.5-1.1-11.4-5c-0.4-0.6-0.6-1.2-0.4-1.9c1.2-5.2,4.7-8.1,9.7-9.3
		C53.4,60.8,55.5,60.6,57.6,60.6z"/>
	<path class="st1" d="M94.2,153.2c-2.6,0-5.1,0-7.7,0c-0.2,0-0.7,0.2-0.7-0.3c0-0.4,0.4-0.2,0.6-0.3c1.5-0.3,2.1-0.9,2.1-2.4
		c0-5.7,0-11.5,0-17.2c0-1.5-0.5-2.2-2.1-2.5c-0.3-0.1-0.7,0-0.6-0.4c0.1-0.3,0.4-0.2,0.7-0.2c4.9,0,9.8,0,14.8,0
		c0.5,0,0.8,0.1,0.7,0.7c0,1.5,0,3,0,4.5c0,0.3,0.1,0.6-0.3,0.7c-0.5,0.1-0.5-0.3-0.5-0.6c0-0.2,0-0.3,0-0.5c-0.1-2.7-1.4-4-4.1-4
		c-1.2,0-2.4,0-3.6,0.1c-1.4,0.1-2,0.8-2,2.3c0,2.5,0,4.9,0,7.4c0,0.6,0.1,0.9,0.8,0.8c0.3,0,0.6,0,0.9,0c2.4,0,3.4-0.9,3.5-3.3
		c0-0.2,0-0.3,0-0.5c0-0.2,0-0.4,0.3-0.4c0.3,0,0.4,0.2,0.4,0.4c0,0.5,0,1,0,1.6c0,2.1,0,4.3,0,6.4c0,0.3,0.1,0.7-0.3,0.7
		c-0.5,0-0.3-0.4-0.4-0.6c-0.1-0.5-0.1-1-0.2-1.5c-0.3-1.3-1.1-1.9-2.5-2.1c-2.4-0.2-2.4-0.2-2.4,2.2c0,2.1,0,4.1,0,6.2
		c0,1.3,0.6,2.1,1.9,2.1c1.7,0.1,3.5,0.1,5.2,0c2-0.2,3.1-1.7,3.3-4c0-0.4,0.1-0.8,0.1-1.3c0-0.3,0.1-0.5,0.5-0.5
		c0.3,0,0.4,0.2,0.4,0.5c0,1.9,0,3.7,0,5.6c0,0.6-0.4,0.5-0.7,0.5C99.4,153.2,96.8,153.2,94.2,153.2z"/>
	<path class="st1" d="M34,153.2c-2.6,0-5.1,0-7.7,0c-0.2,0-0.7,0.2-0.7-0.3c0-0.4,0.4-0.2,0.6-0.3c1.5-0.3,2.1-0.9,2.1-2.5
		c0-5.7,0-11.4,0-17c0-1.6-0.5-2.2-2.1-2.6c-0.2-0.1-0.6,0-0.6-0.4c0-0.4,0.4-0.2,0.6-0.2c5,0,9.9,0,14.9,0c0.5,0,0.7,0.1,0.7,0.7
		c0,1.5,0,3.1,0,4.6c0,0.3,0.1,0.6-0.4,0.6c-0.5,0-0.4-0.3-0.4-0.6c0-0.3,0-0.5,0-0.8c-0.3-2.6-1.5-3.7-4.1-3.8
		c-1.2,0-2.4,0-3.6,0.1c-1.4,0.1-2,0.8-2,2.2c0,2.5,0,4.9,0,7.4c0,0.6,0.1,0.9,0.8,0.8c0.3,0,0.6,0,0.9,0c2.2,0,3.2-0.8,3.5-3
		c0-0.2,0-0.4,0.1-0.6c0.1-0.2-0.2-0.7,0.3-0.6c0.4,0,0.3,0.4,0.3,0.6c0,2.6,0,5.3,0,7.9c0,0.2,0.1,0.6-0.3,0.6
		c-0.4,0-0.3-0.3-0.3-0.6c0-0.3-0.1-0.7-0.1-1c-0.3-1.9-1.2-2.6-3.2-2.6c-1.9,0-1.9,0-1.9,2c0,2.1,0,4.3,0,6.4
		c0,1.4,0.6,2.1,1.9,2.2c1.7,0.1,3.4,0.1,5.1,0c1.7-0.1,2.9-1.3,3.3-3.2c0.1-0.7,0.3-1.4,0.2-2c0-0.3,0-0.5,0.4-0.5
		c0.4,0,0.5,0.1,0.5,0.5c0,1.9,0,3.7,0,5.6c0,0.6-0.4,0.5-0.7,0.5C39.3,153.2,36.7,153.2,34,153.2z"/>
	<path class="st1" d="M66.7,149.4c0-1.1,0-2.2,0-3.2c0-0.3-0.1-0.7,0.5-0.7c0.4,0,0.4,0.4,0.4,0.7c0.1,1.4,0.5,2.8,1.2,4
		c1.2,2.2,3.4,3.1,5.8,2.6c2.5-0.5,3.9-3.9,2.7-6.1c-0.7-1.2-1.7-2.1-2.8-2.9c-1.3-1-2.7-1.8-4.2-2.6c-2.7-1.6-4-4.2-3.4-7.1
		c0.5-2.5,2.4-4.2,5.2-4.5c1.7-0.2,3.2,0.2,4.7,1.1c1.3,0.8,1.5,0.8,2-0.7c0.1-0.3,0.2-0.4,0.5-0.3c0.3,0,0.3,0.2,0.3,0.4
		c0,2,0,3.9-0.1,5.9c0,0.3-0.1,0.5-0.5,0.5c-0.4,0-0.4-0.3-0.4-0.5c-0.2-1.6-0.8-3-1.8-4.2c-1-1.2-3.3-1.9-5-1.3
		c-1.3,0.4-2.5,1.9-2.6,3.3c-0.1,1.5,0.6,2.7,1.6,3.7c0.9,0.9,2,1.6,3.2,2.1c1.8,0.9,3.5,2,4.9,3.6c1.8,2,2.3,4.3,1.3,6.8
		c-1,2.5-3.1,3.4-5.6,3.7c-1.9,0.2-3.8-0.2-5.4-1.3c-1.1-0.7-1.3-0.6-1.8,0.6c-0.1,0.2,0,0.6-0.4,0.5c-0.5-0.1-0.3-0.4-0.3-0.7
		C66.7,151.6,66.7,150.5,66.7,149.4z"/>
	<path class="st1" d="M165.6,153.2c-2.6,0-5.1,0-7.7,0c-0.3,0-0.7,0.2-0.7-0.2c0-0.5,0.4-0.3,0.7-0.3c1.4-0.3,2-0.9,2-2.3
		c0-5.7,0-11.5,0-17.2c0-1.6-0.5-2.2-2.2-2.5c-0.2,0-0.5,0-0.5-0.3c0-0.4,0.4-0.3,0.6-0.3c5,0,9.9,0,14.9,0c0.6,0,0.7,0.2,0.7,0.7
		c0,1.5,0,3,0,4.5c0,0.3,0.2,0.6-0.3,0.7c-0.6,0-0.4-0.3-0.5-0.7c0-0.2,0-0.4,0-0.6c-0.3-2.8-1.5-3.9-4.4-3.9c-1.1,0-2.2,0-3.3,0.1
		c-1.4,0.1-2,0.8-2,2.3c0,2.5,0,4.9,0,7.4c0,0.6,0.1,0.9,0.8,0.8c0.2,0,0.5,0,0.7,0c2.6,0,3.5-0.8,3.8-3.4c0-0.1,0-0.1,0-0.2
		c0-0.3-0.1-0.7,0.4-0.6c0.5,0,0.2,0.5,0.3,0.7c0,0.5,0,1,0,1.5c0,2,0,4.1,0,6.1c0,0.3,0.2,0.8-0.3,0.8c-0.6,0.1-0.3-0.4-0.4-0.7
		c-0.1-0.4-0.1-0.7-0.2-1.1c-0.3-1.4-1-2.2-2.5-2.4c-2.6-0.3-2.6-0.3-2.6,2.2c0,1.9,0,3.9,0,5.8c0,1.8,0.7,2.5,2.5,2.5
		c1.3,0,2.6,0,3.9,0c2.2-0.1,3.6-1.3,4-3.5c0.1-0.6,0.2-1.3,0.2-2c0-0.3,0.1-0.4,0.4-0.4c0.3,0,0.4,0.1,0.4,0.4c0,1.9,0,3.8,0,5.7
		c0,0.6-0.4,0.5-0.8,0.5C170.8,153.2,168.2,153.2,165.6,153.2z"/>
	<path class="st1" d="M111.3,132.4c-0.3,0.3-0.1,0.6-0.1,1c0,5.5,0,11,0,16.5c0,1.8,0.5,2.4,2.3,2.7c0.2,0,0.4,0,0.4,0.3
		c0,0.4-0.3,0.3-0.5,0.3c-1.7,0-3.4,0-5.1,0c-0.2,0-0.4,0.1-0.5-0.2c0-0.4,0.3-0.3,0.5-0.3c1.7-0.3,2.2-1,2.2-2.7
		c0-5.6,0-11.3,0-16.9c0-1.5-0.6-2.2-2.1-2.4c-0.2,0-0.6,0.2-0.6-0.3c0-0.5,0.4-0.2,0.7-0.3c0.1,0,0.1,0,0.2,0
		c1.6,0,3.4-0.5,4.6,0.2c1.2,0.7,1.8,2.4,2.6,3.7c2.9,4.4,5.7,8.9,8.6,13.3c0.1,0.2,0.2,0.3,0.5,0.7c0-0.5,0-0.8,0-1.1
		c0-4.5,0-8.9,0-13.4c0-1.9-0.5-2.5-2.4-2.9c-0.2,0-0.6,0-0.6-0.4c0-0.3,0.4-0.2,0.6-0.2c1.7,0,3.5,0,5.2,0c0.2,0,0.5-0.1,0.5,0.2
		c0,0.2-0.3,0.3-0.4,0.3c-1.9,0.5-2.3,1-2.3,2.9c0,6.2,0,12.3,0,18.5c0,0.4,0.3,1-0.3,1.2c-0.6,0.2-0.7-0.4-1-0.8
		c-4.1-6.3-8.2-12.7-12.3-19.1C111.8,133,111.7,132.6,111.3,132.4z"/>
	<path class="st1" d="M47.7,149.4c0-1,0-2,0-3c0-0.3-0.3-0.8,0.3-0.8c0.6,0,0.4,0.5,0.5,0.8c0.2,1.8,0.7,3.5,1.9,4.9
		c1.4,1.7,3.3,2,5.2,1.6c1.9-0.4,2.7-2,3-3.7c0.2-1.1-0.2-2.1-0.9-3c-1-1.3-2.2-2.2-3.6-3.1c-1-0.7-2.1-1.3-3.2-1.9
		c-2-1.3-3.3-3.1-3.3-5.6c0-3.4,1.9-5.5,5.3-5.8c1.7-0.2,3.2,0.2,4.6,1.1c1.3,0.8,1.5,0.8,2-0.6c0.1-0.3,0.2-0.4,0.5-0.4
		c0.4,0,0.3,0.3,0.3,0.5c0,1.9,0,3.7-0.1,5.6c0,0.3,0.2,0.7-0.4,0.7c-0.5,0-0.4-0.4-0.5-0.7c-0.2-1.2-0.6-2.3-1.3-3.4
		c-1-1.7-2.7-2.2-4.5-2.2c-2.9,0.1-4.5,3.3-3,5.9c0.9,1.6,2.4,2.5,4,3.3c1.9,1,3.8,2.1,5.2,3.8c1.3,1.5,1.9,3.2,1.6,5.2
		c-0.4,2.7-2,4.4-4.8,5.1c-2.3,0.5-4.5,0.3-6.5-1.1c-1.2-0.8-1.4-0.7-1.9,0.7c-0.1,0.2-0.1,0.4-0.4,0.4c-0.3-0.1-0.2-0.3-0.2-0.5
		C47.7,151.7,47.7,150.5,47.7,149.4z"/>
	<path class="st1" d="M152.1,149.3c0,1.1,0,2.2,0,3.3c0,0.2,0.1,0.6-0.3,0.6c-0.4,0-0.4-0.2-0.5-0.5c0-0.1,0-0.3-0.1-0.4
		c-0.3-1.2-0.8-1.4-1.7-0.7c-3.5,2.6-7.2,2.7-11,0.8c-2.9-1.5-4.3-4.1-4.9-7.1c-0.8-4.1-0.5-8.1,1.9-11.6c2.8-4,9.1-5.9,13.7-2.2
		c0.9,0.7,1.5,0.5,1.8-0.7c0-0.1,0.1-0.2,0.1-0.3c0-0.3,0.1-0.6,0.5-0.5c0.4,0,0.3,0.3,0.3,0.6c0,2.1-0.1,4.2-0.1,6.3
		c0,0.3,0.2,0.6-0.3,0.7c-0.5,0-0.5-0.3-0.5-0.6c-0.4-3.2-1.9-5.5-5.1-6.4c-3.2-0.9-5.9,0-7.4,3c-2.7,5.4-2.6,10.9,0.3,16.3
		c1.4,2.5,3.8,3.5,6.2,3.1c3.3-0.6,5.1-2.2,5.8-5.5c0.1-0.5,0.2-1.1,0.2-1.6c0-0.4,0.3-0.5,0.6-0.5c0.4,0,0.4,0.2,0.4,0.5
		C152.1,147,152.1,148.1,152.1,149.3C152.1,149.3,152.1,149.3,152.1,149.3z"/>
	<path class="st1" d="M32.3,170.1c0.8,0.1,1.5,0.3,2.2,0.6c2.9,1.3,3.4,4.9,1,6.9c-1.1,0.9-2.3,1.4-3.7,1.4c-2.5,0.1-5,0-7.6,0
		c-0.1,0-0.3,0-0.3-0.1c0-0.1,0-0.2,0.1-0.2c1.7-0.4,1.9-0.6,1.9-2.4c0-3.8,0-7.5,0-11.3c0-2.2,0-2.2-1.9-2.8c0,0,0.1-0.1,0.1-0.1
		c2.7,0,5.5-0.3,8.2,0.1c2.1,0.3,3.3,1.5,3.5,3.1c0.2,2.1-0.7,3.5-2.8,4.4C32.7,169.8,32.5,169.8,32.3,170.1z M28.4,174
		C28.4,174,28.4,174,28.4,174c0,1,0,2.1,0,3.1c0,0.9,0.5,1.4,1.4,1.5c2.4,0.2,4.2-1.3,4.4-3.5c0.2-2.8-1.2-4.5-3.8-4.7
		c-0.5,0-0.9,0-1.4,0c-0.5,0-0.6,0.2-0.6,0.6C28.4,172,28.4,173,28.4,174z M28.4,166.6c0,0.9,0,1.8,0,2.8c0,0.2-0.1,0.5,0.3,0.6
		c1.6,0.6,3.6-0.5,4.1-2.2c0.3-1,0.3-2.1,0-3.1c-0.4-1.4-1.5-2.3-2.8-2.3c-0.9,0-1.5,0.5-1.5,1.4C28.4,164.8,28.4,165.7,28.4,166.6z
		"/>
	<path class="st1" d="M105.5,179c-1.4,0-2.7,0.1-4.1,0c-0.7,0-1-0.7-1.2-1.3c-0.4-1-0.7-2-1-3.1c-0.2-0.7-0.5-1.5-0.9-2.2
		c-0.3-0.6-0.7-1.1-1.4-1.3c-1.3-0.5-1.7-0.3-1.7,1.1c0,1.7,0,3.4,0,5.1c0,0.5,0,1,0.2,1.7c-0.8-0.5-1.6-1-2.3-1.5
		c-0.5-0.3-0.4-0.7-0.4-1.1c0-3.7,0-7.3,0-11c0-1.5,0.2-3.1-2.2-3.1c0.1-0.1,0.1-0.2,0.2-0.3c0.5,0,1,0,1.5,0
		c2.5,0.1,4.9-0.3,7.4,0.2c2.8,0.6,4.2,2.8,3.5,5.3c-0.6,2-2.2,2.7-4.1,3.2c2.5,1,3.1,3.2,3.9,5.3c0.5,1.3,0.9,2.7,2.8,2.5
		C105.6,178.8,105.5,178.9,105.5,179z M95.1,166.9c0,1,0,2,0,3.1c0,0.2-0.1,0.5,0.3,0.6c2,0.6,4.2-0.6,4.7-2.6c0.3-1,0.3-2.1,0-3.1
		c-0.4-1.9-1.8-2.8-3.7-2.4c-0.8,0.2-1.3,0.6-1.3,1.5C95.1,164.9,95.1,165.9,95.1,166.9z"/>
	<path class="st0" d="M93.3,66.8c0.3-0.2,0.5,0,0.8,0.2c0.5,0.5,1,0.9,1.6,1.1c0.5,0.2,0.5,0.5,0.3,0.9c0,0.2-0.3,0.3-0.1,0.4
		c0.2,0.2,0.3-0.1,0.3-0.3c0.2-0.5,0.5-0.7,1.1-0.4c0.4,0.2,0.9,0.4,1.4,0.3c1-0.1,1.1,0.4,1.1,1.1c0,1,0,2-0.5,2.9
		c-0.4,0.8-1.7,1.7-2.3,1.4c-0.9-0.4-1.4-1.2-1.4-2.2c0-0.6,0.1-1.2,0.1-1.8c0.1-0.1,0.2-0.3,0.1-0.4c-0.2-0.1-0.2,0.1-0.3,0.2
		c-0.5,0.8-1.1,1.6-2.1,1.9c-1.4,0.5-2.2-0.1-2.3-1.6c-0.1-1.1,0.5-1.9,1.1-2.9c-0.6,0.1-0.9,0.4-1.3,0.6c-1.2,0.5-2.7,0.4-3.2-0.3
		c-0.5-0.7,0-2.4,1-3.2c0.3-0.3,0.7-0.5,1.2-0.9c-0.8,0.1-1.4,0.2-2,0.2c-1.1,0-2.3-0.8-2.4-1.5c-0.1-0.7,0.7-1.9,1.6-2.3
		c1-0.5,2.1-0.6,3.3-0.4c0.4,0.1,0.5,0.3,0.6,0.6c0,0.6,0,1.1,0.3,1.6c0.3,0.7,0.3,1.1-0.6,1.3c1.9-0.1,1.7,1.9,2.8,2.5
		c0,0-0.1,0.2-0.1,0.4c-0.1,0.1-0.3,0.2-0.2,0.3C93,67.1,93.2,67,93.3,66.8z M90,64.1C90,64.1,90,64,90,64c0,0.1-0.1,0.1-0.1,0.2
		c0,0.1,0,0.1,0.1,0.2C90,64.2,90,64.2,90,64.1z"/>
	<path class="st0" d="M95.8,83c0-1.6,0.3-3.1,0.9-4.7c0.2-0.5,0.4-0.6,0.9-0.5c1.6,0.3,3.1,0.3,4.7,0c0.3-0.1,0.6-0.2,0.8,0.3
		c0.8,2.3,1.2,4.6,0.7,6.9c0,0.1,0,0.3-0.1,0.4c-0.5,1.8-2.5,3.7-3.8,3.7c-1.3,0-3.2-2-3.7-3.8C95.9,84.6,95.9,83.8,95.8,83z"/>
	<path class="st0" d="M77.2,73.2c-1.5,0-2.7-0.6-3.8-1.5c-0.4-0.3-0.5-0.7-0.5-1.2c0.2-2.2,1.2-3.8,3.1-4.8c1.8-1,3.8-1.4,5.8-1.6
		c0.4,0,0.6,0.2,0.7,0.5c0.3,1.6,0.9,3.1,1.8,4.5c0.2,0.2,0.3,0.5,0,0.8C82.3,71.7,80.1,73.1,77.2,73.2z"/>
	<path class="st0" d="M122.5,73.2c-2.8-0.1-5-1.5-7-3.3c-0.4-0.3-0.2-0.6,0-0.8c0.9-1.3,1.5-2.8,1.8-4.4c0.1-0.4,0.2-0.6,0.7-0.6
		c2,0.2,4,0.5,5.7,1.5c1.9,1.1,3,2.7,3.1,4.9c0,0.5-0.1,0.9-0.5,1.2C125.3,72.6,124,73.2,122.5,73.2z"/>
	<path class="st0" d="M95.9,37.4c0-2.9,0.9-5,3.3-6.2c0.5-0.2,0.9-0.2,1.4,0c2.3,1.1,3.3,3.1,3.3,5.6c0.1,1.7-0.3,3.3-0.8,4.9
		c-0.2,0.5-0.3,0.7-0.8,0.6c-1.6-0.3-3.2-0.3-4.8,0c-0.5,0.1-0.7-0.1-0.8-0.5C96.2,40.1,95.9,38.6,95.9,37.4z"/>
	<path class="st0" d="M104,78.4c-0.3-0.7,0.2-1,1-1.1c1.3-0.2,2.6-0.7,3.7-1.5c0.7-0.5,1-0.3,1.5,0.2c1.4,1.7,2.5,3.5,2.9,5.7
		c0.3,1.9-0.3,3.5-1.5,4.9c-0.4,0.4-0.8,0.4-1.3,0.4c-2-0.2-3.6-1.1-4.6-2.9C104.6,82.4,104.2,80.5,104,78.4z"/>
	<path class="st0" d="M95.8,78.6c-0.2,1.9-0.6,3.8-1.6,5.5c-1.1,1.8-2.6,2.7-4.6,2.9c-0.6,0.1-1-0.1-1.5-0.6
		c-1.7-2.1-1.7-4.4-0.7-6.7c0.6-1.5,1.5-2.7,2.5-3.9c0.3-0.4,0.6-0.4,1-0.1c1.3,0.9,2.7,1.5,4.3,1.8C96.1,77.5,95.8,78.1,95.8,78.6z
		"/>
	<path class="st0" d="M77.4,46.8c2.8,0.2,4.9,1.6,6.9,3.3c0.3,0.3,0.2,0.5,0,0.8c-0.9,1.4-1.6,2.8-1.9,4.5c-0.1,0.3-0.2,0.6-0.7,0.5
		c-2.3-0.1-4.5-0.6-6.5-2c-1.5-1.1-2.3-2.6-2.4-4.4c0-0.5,0.1-0.9,0.5-1.3C74.6,47.4,75.9,46.8,77.4,46.8z"/>
	<path class="st0" d="M122.6,46.8c0.4,0,0.8,0,1.1,0.1c3.4,1.1,4.1,2.3,2.2,5.6c-1.2,2.1-3.5,2.7-5.8,3.2c-0.8,0.2-1.7,0.4-2.4,0.2
		c-0.8-0.3-0.5-1.4-0.8-2.1c-0.3-1-0.9-1.9-1.4-2.8c-0.2-0.3-0.4-0.5,0-0.9C117.5,48.4,119.7,46.9,122.6,46.8z"/>
	<path class="st0" d="M118,81.3c-2.2,0-3.7-1.1-5-2.5c-1-1.1-1.7-2.3-2.4-3.6c-0.2-0.4-0.2-0.6,0.2-0.9c1.4-0.9,2.6-2,3.5-3.4
		c0.2-0.3,0.4-0.4,0.8-0.2c2,1,3.9,2.2,5.1,4.1c0.9,1.3,1.2,2.7,0.9,4.3c-0.4,1.6-0.5,1.8-2.2,2.1C118.5,81.2,118.2,81.2,118,81.3z"
		/>
	<path class="st0" d="M82,81.2c-2.8-0.2-3.2-0.5-3.3-3.4c-0.1-1.9,1-3.4,2.3-4.6c1.1-1,2.4-1.8,3.7-2.5c0.4-0.2,0.7-0.1,0.9,0.2
		c0.9,1.4,2.1,2.5,3.4,3.4c0.2,0.2,0.5,0.3,0.3,0.7c-1.1,2.3-2.5,4.4-4.9,5.6C83.7,81.1,82.8,81.3,82,81.2z"/>
	<path class="st0" d="M113.1,37.4c-0.2,2.8-1.5,5-3.3,7c-0.2,0.3-0.4,0.2-0.7,0.1c-1.4-1-3-1.6-4.7-1.9c-0.2,0-0.5-0.1-0.4-0.4
		c0.2-2.9,0.7-5.7,3-7.8c1.2-1,2.7-1.7,4.1-1.1c1.4,0.6,1.9,2.3,2,3.8C113.1,37.2,113.1,37.3,113.1,37.4z"/>
	<path class="st0" d="M95.8,41.6c0.3,0.8-0.3,1-1.2,1.2c-1.3,0.2-2.5,0.8-3.7,1.6c-0.5,0.3-0.8,0.3-1.2-0.2c-1.4-1.7-2.6-3.6-3-5.9
		c-0.3-1.9,0.3-3.5,1.5-4.9c0.3-0.3,0.6-0.4,1-0.4c2,0.1,3.5,0.9,4.6,2.5C95.2,37.3,95.6,39.3,95.8,41.6z"/>
	<path class="st0" d="M122.8,64c-1.6,0-3.1-0.4-4.6-0.8c-0.4-0.1-0.5-0.4-0.4-0.8c0.4-1.6,0.4-3.2,0-4.8c-0.1-0.4-0.1-0.7,0.4-0.8
		c2.1-0.7,4.3-1.1,6.6-0.7c1.9,0.4,3.3,1.5,4.1,3.3c0.2,0.4,0.2,0.8,0,1.2C127.6,63.2,125.5,64.1,122.8,64z"/>
	<path class="st0" d="M77,64c-2.6,0-4.7-0.8-5.9-3.3c-0.3-0.6-0.3-1,0-1.6c1.3-2.4,3.6-3.5,6.7-3.2c1.3,0.1,2.6,0.4,3.8,0.8
		c0.4,0.1,0.6,0.3,0.5,0.8c-0.4,1.6-0.4,3.2,0,4.9c0.1,0.5-0.1,0.6-0.5,0.8C80.1,63.7,78.6,64,77,64z"/>
	<path class="st0" d="M82.2,38.8c1.8,0,3.2,1,4.5,2.2c1.1,1.1,1.9,2.4,2.6,3.8c0.2,0.4,0.2,0.7-0.2,0.9c-1.4,0.9-2.5,2-3.4,3.4
		c-0.2,0.3-0.4,0.4-0.8,0.2c-2.1-1-4-2.3-5.2-4.3c-0.5-0.8-0.9-1.8-0.9-2.8C78.8,39.3,79.1,38.9,82.2,38.8z"/>
	<path class="st0" d="M118.3,38.8c2.4,0.2,2.6,0.5,2.8,3.3c0.1,1.9-0.9,3.4-2.2,4.6c-1.1,1.1-2.4,1.9-3.8,2.6
		c-0.5,0.2-0.7,0.2-1-0.2c-0.9-1.4-2-2.5-3.4-3.4c-0.3-0.2-0.5-0.4-0.3-0.8c1-2.1,2.3-4,4.3-5.2C115.8,39.1,116.8,38.7,118.3,38.8z"
		/>
	<path class="st1" d="M125.9,179c-1.9,0-3.9,0-5.8,0c0-0.1,0-0.2,0-0.2c1.5-0.5,1.7-1,1.2-2.5c-0.4-1-0.8-1.9-1.1-2.9
		c-0.2-0.4-0.3-0.6-0.8-0.6c-1.6,0-3.1,0-4.7,0c-0.4,0-0.7,0.1-0.8,0.5c-0.2,0.7-0.5,1.4-0.8,2.1c-0.6,1.9,0,2.8,1.9,3.3
		c0.1,0,0.1,0.1,0.4,0.3c-2.1,0-4,0-5.9,0c2-0.5,2.5-2.2,3.1-3.8c1.2-3,2.2-6,3.5-8.9c0.6-1.4,0.3-2.4-0.4-3.6
		c-0.1-0.2-0.2-0.3-0.4-0.6c1,0.2,1.9,0.3,2.7,0.5c0.5,0.1,0.5,0.5,0.7,0.9c1.8,4.4,3.5,8.9,5.3,13.3
		C124.5,177.6,124.8,178.6,125.9,179z M117,165.2c-1,2.5-1.9,4.8-2.8,7.1c1.9,0,3.7,0,5.6,0C118.9,170,118,167.7,117,165.2z"/>
	<path class="st1" d="M86.7,178.9c-1.9,0-3.9,0-5.8,0c0-0.4,0.2-0.3,0.4-0.3c0.9-0.2,1.2-0.8,1-1.6c-0.4-1.3-1-2.6-1.5-4
		c-0.1-0.2-0.3-0.3-0.6-0.3c-1.7,0-3.3,0-5,0c-0.4,0-0.5,0.2-0.6,0.5c-0.3,0.8-0.6,1.6-0.9,2.5c-0.4,1.6,0.2,2.6,1.9,2.9
		c0.1,0,0.2,0.1,0.3,0.3c-1.9,0-3.8,0-5.7,0c2-0.5,2.5-2.3,3.1-3.9c1.2-3,2.3-6,3.5-8.9c0.6-1.3,0.3-2.3-0.4-3.4
		c-0.1-0.2-0.3-0.4-0.5-0.7c1,0.2,1.9,0.3,2.8,0.5c0.5,0.1,0.5,0.6,0.7,1c1.7,4.2,3.3,8.3,5,12.5c0.1,0.3,0.3,0.7,0.4,1
		C85.4,177.7,85.5,178.7,86.7,178.9z M74.9,172.3c1.9,0,3.7,0,5.6,0c-0.9-2.4-1.8-4.6-2.8-7.1C76.7,167.7,75.8,170,74.9,172.3z"/>
	<path class="st1" d="M165.3,162c1.1,0.2,1.9,0.3,2.8,0.5c0.6,0.1,0.6,0.5,0.8,0.9c1.7,4.3,3.4,8.6,5.2,12.9c0.4,1,0.6,2.2,1.9,2.6
		c-1.9,0-3.9,0-5.8,0c0-0.3,0.2-0.2,0.3-0.3c1-0.3,1.4-0.9,1-1.9c-0.4-1.2-0.9-2.3-1.3-3.5c-0.2-0.4-0.4-0.5-0.8-0.5
		c-1.6,0-3.1,0-4.7,0c-0.3,0-0.6-0.1-0.7,0.3c-0.3,0.9-0.7,1.8-1,2.8c-0.3,1.5,0.3,2.4,1.9,2.8c0.2,0,0.3,0,0.4,0.2
		c-0.6,0.2-4.4,0.3-6,0.1c2.7-0.6,3-2.9,3.8-4.7c1-2.5,1.9-5.1,3-7.6C166.7,164.9,166.7,163.5,165.3,162z M169.8,172.4
		c-0.9-2.4-1.8-4.7-2.8-7.2c-0.9,2.3-1.7,4.4-2.5,6.5c-0.1,0.3-0.4,0.7,0.3,0.7C166.4,172.3,168,172.4,169.8,172.4z"/>
	<path class="st1" d="M41.1,162.1c1.9,0,3.8,0,5.8,0c-0.1,0.1-0.1,0.2-0.1,0.2c-1.7,0.4-1.7,0.4-0.9,2c1.3,2.4,2.6,4.8,3.9,7.3
		c1.1-2.3,2.4-4.4,3.2-6.7c0.5-1.4,0.1-1.9-1.9-2.8c1.9,0,3.7,0,5.4,0c-2.2,0.9-3,2.8-3.9,4.7c-0.1,0.1-0.1,0.2-0.2,0.4
		c-2.5,5-2.5,5-2.3,10.7c0,0.3,0.1,0.7,0.1,1.2c-0.8-0.5-1.5-1-2.3-1.5c-0.4-0.2-0.4-0.5-0.3-0.9c0.4-2.9-0.6-5.4-2-7.8
		c-0.9-1.5-1.7-3.1-2.5-4.8C42.6,163.2,42.1,162.5,41.1,162.1z"/>
	<path class="st1" d="M149,178.9c-0.7-0.5-1.4-0.9-2.1-1.4c-0.3-0.2-0.4-0.5-0.4-0.8c0.5-3-0.6-5.6-2.1-8c-0.8-1.4-1.5-2.8-2.3-4.2
		c-0.5-0.9-0.9-2-2.1-2.3c1.9,0,3.8,0,5.7,0c-0.1,0.1-0.1,0.2-0.2,0.2c-1.6,0.3-1.6,0.3-0.8,1.7c1.3,2.5,2.7,5,4.1,7.5
		c1-2.1,2.1-4.1,3-6.1c0.8-1.7,0.3-2.6-1.5-3.3c1.7,0,3.5,0,5.3,0c-0.3,0.4-0.9,0.4-1.3,0.7c-1,0.8-1.6,1.9-2.2,3
		c-0.2,0.4-0.4,0.9-0.6,1.3c-2.5,5-2.5,5-2.3,10.7C148.9,178.2,149,178.5,149,178.9z"/>
	<path class="st1" d="M131.4,162.1c0.1,0,0.2,0,0.2,0c2.5,1.5,2.5,1.5,2.5,4.4c0,3.3,0,6.6,0,9.8c0,1.8,0,1.9,1.7,2.5
		c-2,0-3.9,0-5.9,0c0-0.3,0.2-0.3,0.4-0.3c0.9-0.1,1.3-0.6,1.3-1.5c0-1.2,0-2.4,0-3.6c0-3.2,0-6.4,0-9.5
		C131.7,163.4,131.7,162.8,131.4,162.1z"/>
	<path class="st1" d="M93.2,53.2c-0.1,1.2-1.2,1.8-1.6,2.9c-0.1,0.3-0.7-0.1-1.1,0.1c0.8,0.3,0.9,0.7,0.5,1.4
		c-0.2,0.3-0.2,0.7-0.2,1c0.1,1-0.4,1.2-1.3,1.2c-1.2,0-2.3-0.1-3.2-0.9c-0.6-0.5-1.1-1.1-0.9-1.9c0.1-0.8,0.9-1.2,1.6-1.4
		c0.9-0.3,1.8-0.1,2.7,0.2c-0.1-0.6-0.5-0.6-0.8-0.8c-0.8-0.6-1.4-1.4-1.4-2.5c0-0.8,0.3-1.2,1.1-1.4c1-0.3,1.9-0.1,2.7,0.4
		c0.2,0.1,0.4,0.6,0.7,0.1c0.6,0.2,0.7,0.8,1.1,1.1c-0.1,0.1-0.2,0.1-0.1,0.3C93,53.3,93.1,53.3,93.2,53.2L93.2,53.2z"/>
	<path class="st1" d="M108.2,51.8c0.7-0.2,1.4-0.8,2.2-0.7c1.9,0.1,2.4,0.8,1.7,2.7c-0.3,0.9-1.2,1.5-2,2c0.4-0.1,0.8-0.1,1.3-0.2
		c1.3-0.2,2.9,0.6,3.1,1.5c0.2,0.9-0.9,2.2-2.2,2.6c-0.4,0.1-0.8,0.2-1.3,0.2c-1.7,0.1-1.7,0.1-2-1.6c0-0.2-0.1-0.5-0.2-0.7
		c-0.3-0.6-0.3-1,0.5-1.4c-1.2,0.4-1.2-0.6-1.6-1.2c-0.4-0.6-1.1-1-1-1.8c0,0,0,0,0,0c0.1,0.1,0.2,0.2,0.3,0.1
		c0.2-0.1,0.1-0.2-0.1-0.3c0.3-0.3,0.7-0.6,1-0.9C107.9,52,108.2,52.2,108.2,51.8L108.2,51.8z"/>
	<path class="st0" d="M107.8,52c-0.3,0.3-0.7,0.6-1,0.9c-0.1,0.1-0.1,0.2-0.2,0.2c0,0,0,0,0,0c-0.3,0.1-0.6,0.1-0.9-0.2
		c-0.3-0.3-0.7-0.7-1.2-0.9c-0.6-0.3-1.3-0.5-0.7-1.5c-0.5,0.9-1.1,0.9-1.8,0.5c-0.1-0.1-0.3-0.1-0.4-0.1c-1.7-0.3-1.7-0.3-1.6-2.1
		c0-1.1,0.3-2.1,1.3-2.9c1.1-0.9,2-0.7,2.6,0.6c0.3,0.5,0.4,1.1,0.3,1.7c0,0.4-0.1,0.8-0.1,1.5c0.8-1,1.3-1.9,2.4-2.1
		c1.5-0.4,2.2,0.1,2.3,1.7c0,0.7-0.2,1.3-0.5,1.9c-0.1,0.2-0.4,0.4-0.1,0.6c0,0,0,0,0,0C107.9,51.6,107.8,51.8,107.8,52z
		 M104.2,49.5c-0.1,0.2-0.2,0.2-0.2,0.3c-0.1,0.1-0.1,0.2,0,0.2c0.1,0,0.2-0.1,0.2-0.1C104.3,49.8,104.2,49.7,104.2,49.5z"/>
	<path class="st0" d="M93,52.9c-0.4-0.3-0.5-1-1.1-1.1c-0.6-0.9-1-1.8-0.8-2.8c0.2-1.2,0.8-1.6,2-1.4c0.9,0.2,1,0.2,2.6,2
		c0-0.6-0.1-1.2-0.1-1.7c0-1.1,0.7-2.3,1.5-2.4c0.8-0.1,1.9,0.7,2.3,1.7c0.5,1.1,0.4,2.2,0.4,3.3c0,0.4-0.2,0.4-0.5,0.4
		c-0.5,0-1.1,0.1-1.5,0.2c-0.7,0.3-1.2,0.4-1.6-0.6c0.5,1.2-0.3,1.4-0.9,1.6c-0.7,0.3-0.9,1.3-1.9,1c0,0,0,0,0,0
		C93.1,53.1,93.1,53,93,52.9z M95.7,49.6c-0.2,0.2-0.1,0.3,0,0.5C95.8,50,95.9,49.8,95.7,49.6z"/>
	<path class="st0" d="M109.9,64.2c0.4,0.3,0.8,0.6,1.2,0.9c0.8,0.6,1.2,1.5,1.2,2.6c0,0.5-0.2,0.8-0.6,1c-1,0.5-1.9,0.3-2.8-0.1
		c-0.4-0.2-0.6-0.6-1.1-0.6c-0.3-0.4-0.3-1-0.9-1.2c-0.1-0.2-0.4-0.4-0.1-0.7c0.6-0.6,1-1.3,1.4-2.1c0.3-0.6,0.7,0.1,1,0
		c0.1,0.1,0.3,0.2,0.3,0c0.1-0.3-0.1-0.4-0.4-0.4c-0.4-0.1-0.8-0.4-0.5-0.7c0.7-0.8-0.3-2.3,1.1-2.7c1.1-0.3,2.2-0.1,3.2,0.4
		c0.9,0.4,1.7,1.6,1.6,2.3c-0.2,0.7-1.3,1.5-2.4,1.5C111.4,64.4,110.7,64.3,109.9,64.2c0-0.1-0.1-0.2-0.1-0.3c0,0-0.1,0-0.1,0
		C109.8,64.1,109.9,64.1,109.9,64.2z"/>
	<path class="st1" d="M106.9,66.8c0.6,0.2,0.6,0.8,0.9,1.2c0.3,0.6,0.7,1.2,0.9,1.8c0.3,0.9,0.3,2-0.6,2.5c-0.8,0.6-1.7,0.1-2.6-0.4
		c-0.6-0.4-0.7-1.1-1.3-1.4c0,0,0,0,0,0c0.2-0.3-0.1-0.5-0.2-0.7c0-0.1-0.1-0.2-0.1-0.3c-0.1-0.1,0-0.5-0.3-0.4l0,0
		c-0.1-0.7,0.3-1.1,0.9-1.2c0.1,0,0.3-0.2,0.4-0.2C105.6,67.3,106,66.6,106.9,66.8z"/>
	<path class="st0" d="M104,69.5c0,0.1,0.1,0.2,0.1,0.3c-0.3,0.3-0.1,0.5,0.2,0.7c0,0,0,0,0,0c-0.1,0.7,0.2,1.4,0,2.1
		c-0.2,0.8-0.6,1.6-1.4,1.9c-0.8,0.2-1.6-0.3-2.1-1c-0.9-1.2-0.8-2.6-0.7-3.9c0-0.4,0.4-0.4,0.7-0.4c0.6,0,1.1,0,1.6-0.3
		c0.6-0.3,0.9-0.1,1.3,0.3c0,0,0,0,0,0C103.7,69.3,103.6,69.6,104,69.5z"/>
	<path class="st1" d="M46.2,122.1c-1.6,1.8-3,3.4-4.4,5c-0.2,0.2-0.5,0.6-0.8,0.4c-0.4-0.2,0-0.5,0.1-0.8c0.4-1.3,0.8-2.6,1.2-3.9
		c0.1-0.5,0.4-0.8,0.9-0.7C44.1,122.1,45.1,122.1,46.2,122.1z"/>
	<path class="st1" d="M109.1,63.6c0.3,0,0.5,0.1,0.4,0.4c-0.1,0.2-0.2,0.1-0.3,0C109.1,63.9,109.1,63.8,109.1,63.6z"/>
	<path class="st2" d="M96.2,69.2c-0.1,0.2-0.1,0.4-0.3,0.3C95.7,69.4,96,69.2,96,69C96.1,69.1,96.2,69.1,96.2,69.2z"/>
	<path class="st1" d="M90,64.1c0,0.1-0.1,0.1-0.1,0.2c0-0.1-0.1-0.1-0.1-0.2c0-0.1,0.1-0.1,0.1-0.2C90,64,90,64.1,90,64.1z"/>
	<path class="st2" d="M95.5,70.4c0.1-0.1,0.1-0.3,0.3-0.2c0.1,0.1,0,0.3-0.1,0.4C95.6,70.5,95.5,70.5,95.5,70.4z"/>
	<path class="st2" d="M93.3,66.8c-0.1,0.2-0.3,0.2-0.4,0.1c-0.1-0.1,0.1-0.2,0.2-0.3C93.1,66.7,93.2,66.8,93.3,66.8z"/>
	<path class="st2" d="M93,52.9c0.1,0.1,0.1,0.2,0.2,0.2c-0.1,0.2-0.2,0.2-0.3,0C92.8,53.1,92.9,53,93,52.9z"/>
	<path class="st2" d="M106.6,53.2c0.1-0.1,0.1-0.2,0.2-0.2c0.2,0.1,0.2,0.2,0.1,0.3C106.7,53.4,106.6,53.3,106.6,53.2z"/>
	<path class="st2" d="M107.8,52c0.1-0.2,0.1-0.4,0.4-0.2C108.2,52.2,107.9,52,107.8,52z"/>
	<path class="st2" d="M104.2,49.5c0,0.2,0.1,0.3,0,0.4c0,0.1-0.1,0.1-0.2,0.1c-0.1,0-0.1-0.1,0-0.2C104,49.7,104.1,49.7,104.2,49.5z
		"/>
	<path class="st2" d="M95.7,49.6c0.2,0.2,0.1,0.3,0,0.5C95.6,50,95.5,49.8,95.7,49.6z"/>
	<path class="st1" d="M109.9,64.2c0-0.1-0.1-0.1-0.1-0.2c0,0,0.1,0,0.1,0C109.9,64,109.9,64.1,109.9,64.2L109.9,64.2z"/>
	<path class="st2" d="M104.2,70.5c-0.3-0.2-0.5-0.4-0.2-0.7C104.2,70,104.4,70.2,104.2,70.5z"/>
	<path class="st2" d="M104,69.5c-0.4,0.1-0.3-0.2-0.3-0.4C104,69.1,103.9,69.4,104,69.5z"/>
</g>
<g>
</g>
<g>
</g>
<g>
</g>
<g>
</g>
<g>
</g>
<g>
</g>
</svg>
