<?xml version="1.0" encoding="utf-8"?>
<!-- Generator: Adobe Illustrator 25.3.1, SVG Export Plug-In . SVG Version: 6.00 Build 0)  -->
<svg version="1.1" id="Layer_1" xmlns="http://www.w3.org/2000/svg" xmlns:xlink="http://www.w3.org/1999/xlink" x="0px" y="0px"
	 viewBox="0 0 200 99" style="enable-background:new 0 0 200 99;" xml:space="preserve">
<style type="text/css">
	.st0{display:none;}
	.st1{display:inline;}
	.st2{fill:#FEFEFE;}
	.st3{fill:#F18D0E;}
	.st4{fill:#292237;}
	.st5{fill:#F18E0F;}
	.st6{fill:#2A2338;}
</style>
<g class="st0">
	<g class="st1">
		<path class="st2" d="M100,153.5c-36.3,0-72.7,0-109,0c-0.8,0-1-0.2-1-1c0-72.7,0-145.3,0-218c0-0.8,0.2-1,1-1
			c72.7,0,145.3,0,218,0c0.8,0,1,0.2,1,1c0,72.7,0,145.3,0,218c0,0.8-0.2,1-1,1C172.7,153.5,136.3,153.5,100,153.5z M35.2,96.4
			c0,0,0.1,0.2,0.1,0C35.3,96.4,35.3,96.4,35.2,96.4c0.2-0.5-0.2-1-0.2-1.6c0-2.3,0-4.7,0-7c0-0.3,0.1-0.6,0.2-0.9
			c1.3-2.6,2.6-5.3,4-7.9c0.7-1.3,1.5-2.5,2.7-3.4c0.5-0.3,1.1-0.5,1.7-0.8c0,0,0-0.1-0.1-0.1c-2.3,0-4.7,0-7.1,0
			c0.2,0.2,0.3,0.3,0.3,0.3c2.3,0.6,2.9,1.6,2,3.7c-1.2,2.8-2.6,5.5-4,8.4c-2-3.7-3.9-7.2-5.7-10.7c-0.4-0.8-0.1-1.2,0.7-1.3
			c0.4-0.1,0.9,0.1,1.2-0.4c-2.6,0-5.2,0-7.7,0c1,0.4,1.9,1,2.4,2c1.7,3.3,3.4,6.7,5.3,10c0.8,1.3,1.1,2.7,1,4.2
			c-0.1,1.2-0.4,2.6,0.2,3.5c0.6,1,2,1.4,3,2.1C35.2,96.4,35.2,96.4,35.2,96.4z M160.7,3.7C160.7,3.7,160.7,3.6,160.7,3.7
			c1,1.3,1.1,2.8,1.1,4.3c0,15,0,30.1,0,45.1c0,3.9-1.6,5.5-5.4,5.7c-0.1,0-0.3,0-0.4,0c-0.4,0.1-1-0.2-1,0.6c0,0.8,0.6,0.5,1,0.5
			c13.4,0,26.8,0,40.2,0c0.7,0,1-0.2,1.1-1c0.5-4.9,1-9.8,1.5-14.7c0-0.4,0.4-1-0.4-1.1c-0.6-0.1-1.3-0.2-1.5,0.8
			c-0.1,0.9-0.5,1.7-0.8,2.5c-2,5.5-5.5,9.6-11.2,11.4c-2.9,0.9-5.8,1-8.8,1c-4,0-5.9-1.9-5.9-5.9c0-14.2,0-28.5,0-42.7
			c0-0.6,0-1.1-0.7-1.4c-2.7-1.6-5.3-3.2-8-4.8C161.3,3.8,161.1,3.4,160.7,3.7z M16.5,3.3c-1.4,0-4,0.3-6.6,1.2
			c-4.8,1.6-8.6,6-8.9,10.2c-0.3,5.2,1.8,9.5,5.4,13c1.8,1.8,4.1,3,6.3,4.2c4.1,2.2,8,4.5,11.4,7.7c3.5,3.3,5,7.2,3.9,12
			c-1.1,4.7-4.6,7.5-9.3,7.2c-5-0.4-9-2.6-12-6.7c-1.8-2.5-2.6-5.4-2.9-8.4c0-0.4,0-0.7-0.5-0.7c-0.5,0-0.6,0.2-0.6,0.7
			c-0.3,4-0.7,7.9-1.1,11.9c-0.1,0.7,0.2,0.9,0.8,1.1c2.8,1.1,5.7,2,8.6,2.5c5.3,1,10.7,1.2,15.9-0.5c4.8-1.6,7.8-4.6,8.5-9.7
			c0.8-6-1.2-11.1-5.5-15.3c-3.3-3.3-7.4-5.5-11.4-7.7c-2.1-1.1-4.2-2.2-6-3.8C9,19,7.2,15.3,8,10.5c0.6-3.4,2.7-5.5,6-5.8
			c5.7-0.6,10.3,1.6,13.9,5.9c2.1,2.5,3.1,5.6,3.5,8.9c0,0.4,0,0.8,0.6,0.8c0.6,0,0.6-0.4,0.6-0.8c0.3-3.9,0.7-7.8,1-11.7
			c0.1-0.6-0.1-0.9-0.7-1.1C28.1,4.6,23.1,3.4,16.5,3.3z M106.5,3.7c1.2,1.9,0.9,4,0.9,6c0,9.6,0,19.3,0,28.9c0,2.6,0.2,5.1,0.8,7.6
			c1.6,7,5.7,11.6,12.9,13.1c3.7,0.8,7.4,0.7,11.1,0.1c6.1-1,9.9-4.5,11.6-10.4c1-3.3,1.4-6.7,1.5-10.1c0.1-7.7,0.1-15.3,0.1-23
			c0-1,0.1-2,0.2-3.1c0.7-4.6,4-8,8.3-8.5c0.4,0,0.9,0.1,0.9-0.6c0-0.8-0.6-0.5-1-0.5c-6,0-12,0-18,0c-0.4,0-0.9-0.2-0.9,0.6
			c0,0.7,0.4,0.5,0.8,0.6c0.6,0.1,1.2,0.2,1.8,0.4c4,1.2,6.6,4.7,6.7,9.5c0.1,7.8,0,15.5,0,23.3c0,2.3-0.2,4.5-0.7,6.8
			c-1,4.8-3.4,8.6-8,10.7c-2.9,1.3-6,1.6-9.1,1.5c-3.7-0.2-6.5-2-8.4-5.2c-1.3-2.2-1.9-4.7-2.1-7.2c-0.4-4.8-0.4-9.7-0.4-14.5
			c0-6.6,0-13.1,0-19.7c0-0.7-0.2-1.1-0.8-1.4c-2.4-1.5-4.7-3-7.1-4.6C107.3,4,107.1,3.7,106.5,3.7z M0.9,74.7
			c2.6,0.7,2.7,0.8,2.7,3.5c0,4.8,0,9.7,0,14.5c0,2.8,0,2.8-2.6,3.5c0,0,0,0.1,0,0.1c0.1,0.3,0.3,0.2,0.5,0.2c3.2,0,6.4,0,9.7,0
			c1.6,0,3-0.5,4.3-1.4c1.9-1.3,2.8-3.1,2.6-5.3c-0.2-2.2-1.6-3.5-3.5-4.2c-0.8-0.3-1.7-0.5-2.7-0.8c0.8-0.4,1.6-0.7,2.3-1.1
			c1.8-1.2,2.5-2.9,2.2-5c-0.3-2-1.6-3.1-3.4-3.7c-0.6-0.2-1.2-0.4-1.8-0.4c-3.3-0.2-6.6,0-9.9-0.1C1.2,74.5,1.1,74.6,0.9,74.7z
			 M87.9,74.5c0,0.1,0,0.2,0,0.3c0.1,0.1,0.2,0.2,0.3,0.2c1.9,0.1,2.4,1.2,2.3,2.9c-0.1,5.2,0,10.4,0,15.6c0,0.4-0.2,0.8,0.3,1.1
			c1,0.7,2.1,1.3,3.4,2.1c-0.4-0.9-0.4-1.5-0.4-2.2c0-2.2,0-4.5,0-6.7c0-1.7,0.6-2.1,2.2-1.4c0.7,0.3,1.2,0.8,1.6,1.5
			c0.7,1.1,1.1,2.4,1.5,3.6c0.4,1.3,0.7,2.6,1.3,3.8c0.5,0.9,1.1,1.5,2.3,1.4c1.3-0.1,2.6,0,4,0c0.2,0,0.5,0.1,0.6-0.4
			c-2.3,0.2-2.9-1.4-3.5-3.2c-0.2-0.7-0.5-1.3-0.7-1.9c-0.9-2.1-1.9-4.1-4.5-5.1c1.2-0.3,2.1-0.6,2.9-1.1c1.9-1.1,2.9-2.8,2.8-5.1
			c-0.1-2.4-1.4-3.9-3.6-4.7c-0.8-0.3-1.5-0.5-2.3-0.5c-2.9-0.2-5.7-0.1-8.6-0.1C89,74.5,88.5,74.5,87.9,74.5z M133.8,96.5
			c-1.5-0.3-1.7-1.6-2.3-2.6c-0.2-0.4-0.3-0.7-0.5-1.1c-2.2-5.6-4.4-11.1-6.6-16.7c-0.2-0.4-0.3-0.9-0.9-1c-1.1-0.2-2.3-0.4-3.6-0.6
			c0.2,0.2,0.3,0.3,0.3,0.4c1,1.5,1.6,2.9,0.8,4.8c-1.7,4-3.2,8.1-4.8,12.1c-0.8,2-1.5,4-4.2,4.4c1.2,0.4,7.1,0.4,7.8,0
			c-0.1-0.3-0.4-0.2-0.7-0.2c-1.8-0.4-2.6-1.4-2.4-3.3c0.1-1.4,0.9-2.7,1.3-4c0.1-0.4,0.5-0.3,0.8-0.3c2.1,0,4.2,0,6.3,0
			c0.6,0,0.8,0.2,1,0.7c0.5,1.3,1,2.6,1.5,3.9c0.7,1.9,0.4,2.6-1.5,3.2c0,0,0,0.1-0.1,0.2C128.7,96.5,131.3,96.5,133.8,96.5z
			 M82.7,96.5c-1.5-0.4-1.9-1.8-2.4-2.9c-2.3-5.8-4.7-11.7-7-17.5c-0.1-0.3-0.1-0.7-0.5-0.8c-1.3-0.3-2.5-0.6-3.9-0.6
			c1.1,1.6,1.9,2.9,1.1,4.9c-1.7,4-3.2,8.1-4.8,12.1c-0.8,2-1.5,4.3-4.1,4.9c2.5,0,5,0,7.5,0c0-0.4-0.2-0.3-0.4-0.4
			c-2.3-0.5-3.1-1.8-2.5-4.1c0.3-1,0.7-1.9,1-2.9c0.2-0.6,0.5-0.8,1.1-0.8c2,0,4,0.1,6,0c0.7,0,1,0.3,1.2,0.8c0.5,1.3,1,2.5,1.5,3.8
			c0.8,2,0.5,2.6-1.5,3.2c0,0,0,0.1,0,0.2C77.6,96.5,80.1,96.5,82.7,96.5z M184.9,74.5c0.2,0.2,0.3,0.4,0.4,0.5
			c0.9,1.4,1.6,2.8,0.8,4.6c-1.6,3.7-3,7.6-4.5,11.4c-0.9,2.2-1.4,4.8-4.3,5.4c2.5,0,5,0,7.6,0c-0.2-0.3-0.4-0.3-0.6-0.3
			c-2.1-0.5-3-1.7-2.4-3.8c0.3-1.2,0.8-2.3,1.2-3.4c0.2-0.5,0.5-0.5,0.9-0.5c2.1,0,4.2,0,6.4,0c0.5,0,0.7,0.1,0.9,0.6
			c0.6,1.5,1.2,3,1.7,4.5c0.5,1.4,0.1,2.2-1.4,2.6c-0.2,0-0.4,0-0.4,0.4c2.5,0,5.1,0,7.6,0c-1.6-0.3-1.8-1.7-2.3-2.8
			c-0.2-0.4-0.3-0.8-0.5-1.2c-2.2-5.5-4.4-10.9-6.5-16.4c-0.3-0.7-0.6-1-1.3-1C187.1,74.9,186.1,74.7,184.9,74.5z M165.1,74.6
			c0.2,0.4,0.4,0.4,0.6,0.4c1.5,0.3,2.1,1,1.9,2.5c-0.1,0.6-0.2,1.2-0.5,1.7c-1.2,2.6-2.5,5.1-3.8,7.8c-2-3.7-3.9-7.2-5.8-10.8
			c-0.3-0.6,0-0.9,0.6-1.1c0.5-0.1,1,0,1.6-0.4c-2.8,0-5.3,0-8,0c2.1,1.1,2.1,1.1,3.2,3.3c1.1,2,2,4.1,3.2,6c1.8,2.9,2.9,6,2.4,9.5
			c0,0.2,0,0.4,0,0.5c0,0.2,0.1,0.4,0.3,0.5c1,0.6,2,1.3,3.2,2.1c-0.3-0.8-0.3-1.4-0.3-1.9c0-2.4-0.4-4.9,0.1-7.2
			c0.5-2.3,2-4.4,3.1-6.6c1.2-2.5,2.3-5.1,5.3-6.2C169.8,74.6,167.5,74.6,165.1,74.6z M84.9,55.8c0.5-0.2,1.3,0.2,1.7-0.6
			c0.7-1.2,1.1-2.5,0.8-4c-0.6-2.8-2.4-4.7-4.6-6.4c-0.4-0.3-0.7-0.1-0.9,0.2c-1.1,1.1-2.3,2-3.8,2.5c-0.5,0.2-0.6,0.5-0.4,0.9
			c0.5,1.9,1.3,3.7,2.6,5.2C81.5,55.1,82.9,55.8,84.9,55.8z M85.1,7.4c-1.9,0.1-3.2,0.6-4.3,1.7c-1.6,1.6-2.5,3.6-3.1,5.7
			c-0.2,0.6,0.1,0.8,0.6,1c1.4,0.6,2.6,1.3,3.6,2.4c0.4,0.4,0.8,0.5,1.3,0.1c1-0.9,2.1-1.8,2.8-2.9c1.4-1.9,2.1-4,1.1-6.4
			C86.7,7.8,85.9,7.3,85.1,7.4z M70,52.3c0-0.8-0.1-1.5-0.2-2.3c-0.1-0.5-0.3-0.7-0.8-0.7c-1.6,0.1-3-0.3-4.5-0.9
			c-0.3-0.1-0.6-0.4-0.9,0.1c-1.5,2.5-2.6,5.2-1.7,8.2c0.4,1.4,1.2,2.7,2.6,3c1.4,0.3,2.7-0.7,3.7-1.8c0.5-0.6,0.8-1.2,1.1-1.9
			C69.8,54.9,70,53.6,70,52.3z M49.6,31.4c0.8-0.1,1.5-0.2,2.3-0.2c0.4,0,0.6-0.2,0.6-0.6c0-1.7,0.3-3.3,1-4.8
			c0.1-0.3,0.1-0.5-0.2-0.7c-2.4-1.4-4.8-2.3-7.6-1.8c-1.6,0.3-3.2,1.2-3.5,2.8c-0.3,1.5,0.8,2.9,2.1,3.9c0.5,0.3,1,0.6,1.5,0.8
			C47,31.2,48.3,31.3,49.6,31.4z M49.9,14.3c-3.8,0.3-4.6,1.5-3.5,5c0.2,0.7,0.7,1.3,1.2,1.8c1.6,1.6,3.5,2.4,5.6,3
			c0.6,0.2,0.9,0,1.1-0.5c0.4-1,0.9-1.9,1.6-2.7c1.4-1.7,1.4-1.7-0.1-3.3c0,0,0-0.1-0.1-0.1C54.1,15.9,52.3,14.5,49.9,14.3z
			 M49.6,48.9c0.4,0,0.6,0,0.7,0c0.2,0,0.4-0.1,0.6-0.1c2.6-0.6,4.3-2.3,5.9-4.3c0.4-0.5,0.4-0.8-0.1-1.2c-0.7-0.7-1.3-1.4-1.8-2.3
			c-1.2-2.2-1.2-2.2-3.6-1.2c-0.8,0.3-1.5,0.7-2.2,1.2c-1.2,0.7-2.2,1.7-2.7,3C45.3,47.3,46.1,48.5,49.6,48.9z M70,11.1
			c-0.1-2.4-0.3-4.9-2.4-6.5c-2.6-2-3.4-1.7-5.2,0.8c-0.4,0.5-0.5,1.1-0.6,1.7c-0.5,2.7,0.6,5.1,1.8,7.4c0.3,0.5,0.7,0.3,1,0.2
			c1-0.4,1.9-0.7,3-0.8c2.3-0.1,2.3-0.1,2.3-2.5C70,11.3,70,11.2,70,11.1z M55.4,7.4c-0.8-0.1-1.6,0.4-2,1.5
			c-0.3,0.8-0.5,1.7-0.4,2.6c0.3,3.2,2.4,5.1,4.7,7c0.3,0.3,0.6,0.1,0.8-0.1c1.1-1.2,2.4-2.1,4-2.7c0.4-0.1,0.5-0.3,0.4-0.8
			c-0.5-2-1.3-3.9-2.7-5.4C59,8.1,57.5,7.4,55.4,7.4z M70.5,11.3c0,0.3,0.1,0.9,0.1,1.5c0,0.7,0.3,1.1,1,1.1c1.5,0,2.9,0.3,4.3,0.9
			c0.3,0.1,0.7,0.3,0.9-0.2c1.3-2.2,2.2-4.5,1.9-7.2c-0.2-1.7-1.8-4-2.9-4c-1.8,0-3.2,1-4.1,2.5c-0.3,0.4-0.5,0.9-0.6,1.4
			C70.6,8.5,70.6,9.8,70.5,11.3z M70.5,52.2c0,1.9,0.2,3.7,1.3,5.2c0.9,1.5,2.4,2.6,4,2.4c1.6-0.3,2.4-1.9,2.8-3.5
			c0.1-0.4,0.1-0.7,0.1-1.1c0.1-2.2-0.7-4.2-1.7-6.1c-0.4-0.7-0.7-0.8-1.4-0.5c-0.9,0.4-1.9,0.7-2.8,0.8c-2.3,0.2-2.3,0.2-2.3,2.5
			C70.5,51.9,70.5,52.1,70.5,52.2z M53,51.6c0.2,4.2,1.5,4.9,5,3.8c0.5-0.2,1-0.6,1.5-0.9c1.9-1.6,2.7-3.8,3.4-6.1
			c0.1-0.4-0.1-0.5-0.4-0.7c-1.5-0.6-2.9-1.5-4.1-2.7c-0.2-0.2-0.4-0.4-0.8-0.1C55.4,46.6,53.3,48.7,53,51.6z M90.8,31.3
			c1.9,0,3.8-0.3,5.4-1.4c1.4-0.9,2.5-2.4,2.2-3.9c-0.3-1.5-1.9-2.3-3.4-2.8c-0.2,0-0.4-0.1-0.5-0.1c-2.6-0.3-4.9,0.6-7.2,1.9
			c-0.5,0.3-0.3,0.6-0.2,0.9c0.4,1,0.6,1.9,0.8,2.9c0.2,0.7-0.4,1.7,0.4,2.2C89.1,31.5,90,31.3,90.8,31.3z M93.8,40.2
			c1.4,0.1,2.9-0.6,4.2-2.1c0.5-0.5,0.6-1.1,0.4-1.8c-0.6-1.7-1.6-2.9-3.3-3.6c-2.1-0.9-4.3-0.8-6.5-0.6c-0.4,0-0.7,0.2-0.6,0.7
			c0.1,1.6-0.3,3.1-0.9,4.6c-0.2,0.4-0.1,0.7,0.3,1C89.3,39.3,91.2,40.1,93.8,40.2z M49.6,31.9c-1.8-0.1-3.7,0.2-5.4,1.4
			c-1.3,0.9-2.4,2.3-2.1,3.9c0.3,1.5,1.7,2.3,3.2,2.7c0.4,0.1,0.8,0.2,1.2,0.2c2.4,0.2,4.6-0.7,6.7-1.9c0.5-0.3,0.4-0.6,0.3-1
			c-0.4-1-0.7-1.9-0.8-2.9c-0.2-2.4-0.3-2.4-2.8-2.4C49.8,31.9,49.8,31.9,49.6,31.9z M94.4,46.2c0.1-1.9-0.6-3.3-1.9-4.5
			c-1.5-1.4-3.4-2.2-5.4-2.7c-0.5-0.1-0.8,0-0.9,0.5c-0.6,1.5-1.4,2.7-2.5,3.8c-0.4,0.4-0.4,0.7,0,1.1c0.9,1.2,1.9,2.2,3.1,3
			c1.9,1.3,3.9,1.9,6.2,1C94,48,94.7,47.4,94.4,46.2z M94.4,17.2c0-1.7-0.1-1.8-1.6-2.4c-1.2-0.5-2.5-0.6-3.7-0.1
			c-2.4,0.8-4.1,2.5-5.6,4.4c-0.3,0.4,0,0.7,0.2,0.9c1.1,1.1,2,2.3,2.5,3.8c0.2,0.4,0.4,0.6,0.9,0.5c1.8-0.5,3.5-1.2,4.9-2.3
			C93.5,20.7,94.5,19.2,94.4,17.2z M141.1,74.7c0.2,0.7,0.1,1.4,0.1,2c0,5.6,0,11.1,0,16.7c0,2.2-0.1,2.3-2.2,2.9c0,0,0,0.1,0,0.2
			c2.5,0,5.1,0,7.6,0c0.1-0.1,0.2-0.2,0.3-0.3c-2.9,0-2.6-2-2.6-3.7c0-4.9,0-9.9,0-14.8c0-0.5,0.1-0.9-0.5-1.2
			C142.9,75.9,142,75.2,141.1,74.7z"/>
		<path class="st3" d="M16.5,3.3C23.1,3.4,28.1,4.6,33,6.6c0.6,0.2,0.7,0.5,0.7,1.1c-0.4,3.9-0.7,7.8-1,11.7c0,0.4,0,0.8-0.6,0.8
			c-0.6,0-0.6-0.4-0.6-0.8c-0.4-3.3-1.3-6.3-3.5-8.9c-3.6-4.3-8.2-6.5-13.9-5.9C10.7,5,8.6,7.1,8,10.5C7.2,15.3,9,19,12.6,22
			c1.8,1.5,3.9,2.6,6,3.8c4,2.2,8.1,4.5,11.4,7.7c4.3,4.2,6.3,9.3,5.5,15.3c-0.7,5.1-3.8,8.1-8.5,9.7c-5.3,1.7-10.6,1.6-15.9,0.5
			c-3-0.6-5.8-1.4-8.6-2.5c-0.5-0.2-0.8-0.4-0.8-1.1c0.4-4,0.7-7.9,1.1-11.9c0-0.4,0.1-0.7,0.6-0.7c0.6,0,0.5,0.4,0.5,0.7
			c0.3,3,1.1,5.9,2.9,8.4c3,4.1,7,6.3,12,6.7c4.6,0.4,8.1-2.5,9.3-7.2c1.1-4.8-0.4-8.7-3.9-12c-3.4-3.2-7.4-5.5-11.4-7.7
			c-2.2-1.2-4.5-2.4-6.3-4.2c-3.6-3.6-5.7-7.8-5.4-13c0.2-4.2,4.1-8.6,8.9-10.2C12.5,3.7,15.1,3.3,16.5,3.3z"/>
		<path class="st3" d="M106.5,3.7c0.6,0,0.8,0.3,1.1,0.4c2.4,1.5,4.7,3.1,7.1,4.6c0.6,0.4,0.8,0.7,0.8,1.4c0,6.6,0,13.1,0,19.7
			c0,4.8,0,9.7,0.4,14.5c0.2,2.5,0.8,5,2.1,7.2c1.9,3.2,4.7,5,8.4,5.2c3.1,0.2,6.2-0.2,9.1-1.5c4.7-2.1,7-5.9,8-10.7
			c0.5-2.2,0.7-4.5,0.7-6.8c0-7.8,0.1-15.5,0-23.3c-0.1-4.8-2.7-8.4-6.7-9.5c-0.6-0.2-1.2-0.3-1.8-0.4c-0.4-0.1-0.8,0.1-0.8-0.6
			c0-0.7,0.5-0.6,0.9-0.6c6,0,12,0,18,0c0.4,0,0.9-0.2,1,0.5c0,0.7-0.5,0.6-0.9,0.6c-4.3,0.5-7.7,3.9-8.3,8.5c-0.2,1-0.2,2-0.2,3.1
			c0,7.7,0,15.3-0.1,23c0,3.4-0.5,6.8-1.5,10.1c-1.7,5.9-5.5,9.4-11.6,10.4c-3.7,0.6-7.4,0.6-11.1-0.1c-7.2-1.5-11.2-6.1-12.9-13.1
			c-0.6-2.5-0.8-5.1-0.8-7.6c0-9.6,0-19.3,0-28.9C107.4,7.7,107.7,5.6,106.5,3.7z"/>
		<path class="st3" d="M160.7,3.7c0.4-0.2,0.6,0.1,0.9,0.3c2.7,1.6,5.3,3.3,8,4.8c0.6,0.4,0.7,0.8,0.7,1.4c0,14.2,0,28.5,0,42.7
			c0,4,1.9,5.8,5.9,5.9c3,0,5.9-0.1,8.8-1c5.8-1.8,9.2-5.9,11.2-11.4c0.3-0.8,0.6-1.7,0.8-2.5c0.2-1,0.8-0.9,1.5-0.8
			c0.8,0.1,0.4,0.8,0.4,1.1c-0.5,4.9-1,9.8-1.5,14.7c-0.1,0.8-0.3,1-1.1,1c-13.4,0-26.8,0-40.2,0c-0.4,0-0.9,0.3-1-0.5
			c0-0.9,0.6-0.5,1-0.6c0.1,0,0.3,0,0.4,0c3.8-0.2,5.4-1.8,5.4-5.7c0-15,0-30.1,0-45.1C161.8,6.4,161.7,4.9,160.7,3.7L160.7,3.7z"/>
		<path class="st4" d="M0.9,74.7c0.2-0.1,0.3-0.2,0.4-0.2c3.3,0,6.6-0.1,9.9,0.1c0.6,0,1.2,0.2,1.8,0.4c1.8,0.6,3.1,1.7,3.4,3.7
			c0.3,2.1-0.5,3.8-2.2,5c-0.7,0.5-1.5,0.8-2.3,1.1c1,0.3,1.9,0.5,2.7,0.8c1.9,0.7,3.3,2,3.5,4.2c0.2,2.3-0.7,4.1-2.6,5.3
			c-1.3,0.9-2.8,1.4-4.3,1.4c-3.2,0.1-6.4,0-9.7,0c-0.2,0-0.5,0.1-0.5-0.2c0,0,0-0.1,0-0.1c2.6-0.7,2.6-0.7,2.6-3.5
			c0-4.8,0-9.7,0-14.5C3.6,75.5,3.6,75.4,0.9,74.7z M6.9,90.1c0,1.3,0,2.6,0,3.9c0,1,0.4,1.8,1.5,2c2.1,0.5,5.1-1.1,5.8-3.2
			c1.4-4.1-1.1-7.5-5.4-7.5c-0.4,0-0.8,0-1.2,0c-0.5,0-0.7,0.1-0.7,0.7C6.9,87.4,6.9,88.7,6.9,90.1z M6.9,80.5c0,1.2,0,2.4,0,3.6
			c0,0.3-0.1,0.6,0.4,0.8c2.4,0.6,4.6-0.6,5.3-2.9c0.4-1.5,0.4-3-0.1-4.4c-0.5-1.6-1.8-2.5-3.3-2.6c-1.4-0.1-2.1,0.6-2.2,2
			C6.9,78.2,6.9,79.3,6.9,80.5z"/>
		<path class="st4" d="M87.9,74.5c0.6,0,1.1,0,1.7,0c2.9,0.1,5.7-0.1,8.6,0.1c0.8,0.1,1.6,0.2,2.3,0.5c2.2,0.8,3.5,2.3,3.6,4.7
			c0.1,2.3-0.9,3.9-2.8,5.1c-0.8,0.5-1.7,0.8-2.9,1.1c2.7,0.9,3.6,3,4.5,5.1c0.3,0.6,0.5,1.3,0.7,1.9c0.6,1.7,1.2,3.3,3.5,3.2
			c-0.1,0.6-0.4,0.4-0.6,0.4c-1.3,0-2.6-0.1-4,0c-1.1,0.1-1.8-0.5-2.3-1.4c-0.6-1.2-0.9-2.5-1.3-3.8c-0.4-1.3-0.8-2.5-1.5-3.6
			c-0.4-0.6-0.9-1.2-1.6-1.5c-1.6-0.7-2.2-0.3-2.2,1.4c0,2.2,0,4.5,0,6.7c0,0.7-0.1,1.3,0.4,2.2c-1.3-0.8-2.3-1.5-3.4-2.1
			c-0.5-0.3-0.3-0.7-0.3-1.1c0-5.2,0-10.4,0-15.6c0-1.7-0.4-2.8-2.3-2.9c-0.1,0-0.2-0.1-0.3-0.2C87.9,74.7,87.9,74.6,87.9,74.5z
			 M95.3,85.6c3.3,0.3,5-1.9,5.1-4.8c0-0.7,0-1.5-0.1-2.2c-0.3-2.7-2.2-4.1-4.8-3.6c-1.2,0.2-1.8,0.8-1.8,2.1c0,2.6,0,5.1,0,7.7
			c0,0.7,0.1,1,0.8,0.9C94.8,85.6,95,85.6,95.3,85.6z"/>
		<path class="st4" d="M133.8,96.5c-2.5,0-5.1,0-7.6,0c0-0.1,0-0.2,0.1-0.2c1.9-0.6,2.3-1.3,1.5-3.2c-0.5-1.3-1-2.6-1.5-3.9
			c-0.2-0.5-0.5-0.7-1-0.7c-2.1,0-4.2,0-6.3,0c-0.3,0-0.7-0.1-0.8,0.3c-0.4,1.3-1.2,2.6-1.3,4c-0.2,1.9,0.6,2.9,2.4,3.3
			c0.2,0.1,0.5-0.1,0.7,0.2c-0.7,0.3-6.6,0.4-7.8,0c2.7-0.4,3.4-2.5,4.2-4.4c1.6-4,3-8.1,4.8-12.1c0.8-1.9,0.3-3.3-0.8-4.8
			c-0.1-0.1-0.2-0.2-0.3-0.4c1.3,0.2,2.4,0.4,3.6,0.6c0.6,0.1,0.7,0.5,0.9,1c2.2,5.6,4.4,11.1,6.6,16.7c0.1,0.4,0.3,0.8,0.5,1.1
			C132.1,94.9,132.3,96.2,133.8,96.5z M122.1,78.5c-1.2,3.1-2.3,5.9-3.4,8.6c-0.2,0.5-0.2,0.7,0.4,0.7c2,0,4,0,5.9,0
			c0.5,0,0.7-0.1,0.5-0.6C124.4,84.4,123.3,81.6,122.1,78.5z"/>
		<path class="st4" d="M82.7,96.5c-2.5,0-5.1,0-7.6,0c0-0.1,0-0.2,0-0.2c2-0.6,2.3-1.3,1.5-3.2c-0.5-1.3-1-2.5-1.5-3.8
			c-0.2-0.6-0.5-0.9-1.2-0.8c-2,0.1-4,0-6,0c-0.6,0-0.9,0.1-1.1,0.8c-0.3,1-0.8,1.9-1,2.9c-0.6,2.3,0.1,3.6,2.5,4.1
			c0.2,0,0.4,0,0.4,0.4c-2.5,0-5,0-7.5,0c2.6-0.6,3.2-2.9,4.1-4.9c1.6-4,3.1-8.1,4.8-12.1c0.9-2,0-3.3-1.1-4.9
			c1.3,0,2.6,0.4,3.9,0.6c0.3,0.1,0.3,0.5,0.5,0.8c2.3,5.8,4.7,11.7,7,17.5C80.8,94.7,81.2,96,82.7,96.5z M71,78.5
			c-1.2,3-2.3,5.9-3.4,8.7c-0.3,0.6,0,0.7,0.5,0.6c1.2,0,2.4,0,3.6,0c1,0,1.9,0.1,2.9-0.1C73.4,84.7,72.3,81.7,71,78.5z"/>
		<path class="st4" d="M184.9,74.5c1.1,0.2,2.1,0.4,3.2,0.5c0.7,0.1,1.1,0.4,1.3,1c2.1,5.5,4.3,10.9,6.5,16.4
			c0.2,0.4,0.3,0.8,0.5,1.2c0.6,1.1,0.8,2.5,2.3,2.8c-2.5,0-5.1,0-7.6,0c0-0.3,0.2-0.3,0.4-0.4c1.4-0.4,1.9-1.2,1.4-2.6
			c-0.5-1.5-1.2-3-1.7-4.5c-0.2-0.5-0.4-0.6-0.9-0.6c-2.1,0-4.2,0-6.4,0c-0.4,0-0.7,0-0.9,0.5c-0.4,1.1-0.9,2.2-1.2,3.4
			c-0.5,2.1,0.3,3.3,2.4,3.8c0.2,0,0.4,0,0.6,0.3c-2.6,0-5.1,0-7.6,0c2.9-0.6,3.4-3.2,4.3-5.4c1.5-3.8,2.9-7.7,4.5-11.4
			c0.8-1.9,0.2-3.2-0.8-4.6C185.3,74.8,185.1,74.7,184.9,74.5z M187.1,78.5c-1.2,3-2.3,5.8-3.4,8.6c-0.3,0.6-0.2,0.8,0.5,0.8
			c1.9,0,3.9,0,5.8,0c0.4,0,0.7,0,0.5-0.6C189.4,84.5,188.3,81.6,187.1,78.5z"/>
		<path class="st4" d="M165.1,74.6c2.4,0,4.7,0,7.1,0c-2.9,1.1-4,3.7-5.3,6.2c-1.1,2.2-2.6,4.3-3.1,6.6c-0.5,2.3-0.1,4.8-0.1,7.2
			c0,0.6,0.1,1.2,0.3,1.9c-1.2-0.8-2.2-1.4-3.2-2.1c-0.2-0.1-0.3-0.3-0.3-0.5c0-0.2,0-0.4,0-0.5c0.5-3.5-0.5-6.6-2.4-9.5
			c-1.2-1.9-2.2-4-3.2-6c-1.2-2.2-1.2-2.2-3.2-3.3c2.7,0,5.3,0,8,0c-0.6,0.5-1.2,0.3-1.6,0.4c-0.6,0.2-0.9,0.5-0.6,1.1
			c1.9,3.6,3.8,7.1,5.8,10.8c1.3-2.7,2.6-5.2,3.8-7.8c0.2-0.5,0.4-1.1,0.5-1.7c0.2-1.5-0.3-2.2-1.9-2.5
			C165.5,74.9,165.3,75,165.1,74.6z"/>
		<path class="st4" d="M35.2,96.4c0,0-0.1,0-0.1,0c-1-0.7-2.5-1.1-3-2.1c-0.5-0.9-0.2-2.3-0.2-3.5c0.1-1.5-0.2-2.8-1-4.2
			c-1.9-3.3-3.6-6.6-5.3-10c-0.5-1-1.3-1.6-2.4-2c2.5,0,5.1,0,7.7,0c-0.3,0.5-0.8,0.3-1.2,0.4c-0.9,0.2-1.2,0.5-0.7,1.3
			c1.9,3.5,3.8,7,5.7,10.7c1.4-2.9,2.8-5.6,4-8.4c0.9-2.2,0.3-3.1-2-3.7c-0.1,0-0.1-0.1-0.3-0.3c2.5,0,4.8,0,7.1,0
			c0,0,0,0.1,0.1,0.1c-0.6,0.3-1.2,0.5-1.7,0.8c-1.2,0.9-2.1,2.1-2.7,3.4c-1.3,2.6-2.6,5.3-4,7.9c-0.1,0.3-0.2,0.6-0.2,0.9
			c0,2.3,0,4.7,0,7C35,95.4,35.4,95.9,35.2,96.4C35.2,96.4,35.2,96.4,35.2,96.4z"/>
		<path class="st4" d="M84.9,55.8c-2,0-3.4-0.7-4.6-2.1c-1.3-1.5-2.1-3.3-2.6-5.2c-0.1-0.5,0-0.8,0.4-0.9c1.5-0.5,2.7-1.4,3.8-2.5
			c0.3-0.3,0.5-0.5,0.9-0.2c2.2,1.7,4,3.5,4.6,6.4c0.3,1.5-0.1,2.7-0.8,4C86.2,56,85.4,55.7,84.9,55.8z"/>
		<path class="st4" d="M85.1,7.4c0.9-0.1,1.6,0.4,2,1.6c0.9,2.4,0.2,4.4-1.1,6.4c-0.8,1.1-1.8,2-2.8,2.9c-0.5,0.4-0.9,0.4-1.3-0.1
			c-1-1.1-2.2-1.9-3.6-2.4c-0.5-0.2-0.7-0.4-0.6-1c0.6-2.1,1.4-4.1,3.1-5.7C81.9,7.9,83.2,7.4,85.1,7.4z"/>
		<path class="st4" d="M70,52.3c0,1.3-0.2,2.5-0.6,3.8c-0.3,0.7-0.6,1.3-1.1,1.9c-1,1.1-2.2,2.1-3.7,1.8c-1.4-0.3-2.2-1.6-2.6-3
			c-0.9-3,0.3-5.7,1.7-8.2c0.3-0.4,0.6-0.2,0.9-0.1c1.4,0.6,2.9,0.9,4.5,0.9c0.5,0,0.7,0.2,0.8,0.7C69.9,50.8,70,51.6,70,52.3z"/>
		<path class="st4" d="M49.6,31.4c-1.3,0-2.6-0.2-3.9-0.7c-0.5-0.2-1.1-0.5-1.5-0.8c-1.3-0.9-2.4-2.3-2.1-3.9
			c0.3-1.6,1.9-2.5,3.5-2.8c2.8-0.5,5.3,0.4,7.6,1.8c0.3,0.2,0.4,0.4,0.2,0.7c-0.7,1.5-0.9,3.1-1,4.8c0,0.4-0.2,0.6-0.6,0.6
			C51.1,31.2,50.4,31.3,49.6,31.4z"/>
		<path class="st4" d="M49.9,14.3c2.4,0.1,4.2,1.5,5.8,3.2c0,0,0,0.1,0.1,0.1c1.5,1.6,1.5,1.6,0.1,3.3c-0.7,0.8-1.2,1.7-1.6,2.7
			c-0.2,0.5-0.4,0.7-1.1,0.5c-2.1-0.6-4.1-1.4-5.6-3c-0.5-0.5-1-1.1-1.2-1.8C45.4,15.8,46.2,14.6,49.9,14.3z"/>
		<path class="st4" d="M49.6,48.9c-3.5-0.3-4.3-1.5-3.1-5c0.4-1.3,1.5-2.2,2.7-3c0.7-0.4,1.5-0.8,2.2-1.2c2.4-1,2.4-1,3.6,1.2
			c0.5,0.9,1.1,1.6,1.8,2.3c0.4,0.4,0.4,0.7,0.1,1.2c-1.6,2-3.3,3.7-5.9,4.3c-0.2,0.1-0.4,0.1-0.6,0.1C50.2,48.9,50,48.9,49.6,48.9z
			"/>
		<path class="st4" d="M70,11.1c0,0.1,0,0.2,0,0.3c-0.1,2.3-0.1,2.3-2.3,2.5c-1,0.1-2,0.4-3,0.8c-0.4,0.1-0.7,0.4-1-0.2
			c-1.3-2.3-2.3-4.7-1.8-7.4c0.1-0.6,0.3-1.2,0.6-1.7C64.2,3,65,2.6,67.6,4.6C69.7,6.2,69.9,8.7,70,11.1z"/>
		<path class="st4" d="M55.4,7.4c2.1,0,3.5,0.7,4.7,2c1.4,1.6,2.2,3.4,2.7,5.4c0.1,0.5,0,0.7-0.4,0.8c-1.5,0.6-2.8,1.5-4,2.7
			c-0.2,0.2-0.4,0.4-0.8,0.1c-2.3-1.8-4.4-3.8-4.7-7c-0.1-0.9,0.1-1.7,0.4-2.6C53.9,7.8,54.6,7.3,55.4,7.4z"/>
		<path class="st4" d="M70.5,11.3c0-1.5,0.1-2.8,0.6-4c0.2-0.5,0.4-1,0.6-1.4c0.9-1.5,2.3-2.5,4.1-2.5c1.1,0,2.7,2.3,2.9,4
			c0.3,2.6-0.6,5-1.9,7.2c-0.3,0.5-0.6,0.3-0.9,0.2c-1.4-0.6-2.8-0.9-4.3-0.9c-0.7,0-1-0.3-1-1.1C70.7,12.2,70.6,11.7,70.5,11.3z"/>
		<path class="st4" d="M70.5,52.2c0-0.1,0-0.2,0-0.3c0-2.3,0-2.3,2.3-2.5c1-0.1,1.9-0.4,2.8-0.8c0.6-0.3,1-0.2,1.4,0.5
			c1,1.9,1.8,3.9,1.7,6.1c0,0.4-0.1,0.7-0.1,1.1c-0.4,1.6-1.2,3.2-2.8,3.5c-1.7,0.3-3.1-0.9-4-2.4C70.8,55.8,70.5,54,70.5,52.2z"/>
		<path class="st4" d="M53,51.6c0.3-2.9,2.3-4.9,4.7-6.8c0.3-0.3,0.5-0.1,0.8,0.1c1.2,1.2,2.5,2.1,4.1,2.7c0.3,0.1,0.5,0.2,0.4,0.7
			c-0.6,2.3-1.5,4.5-3.4,6.1c-0.4,0.4-0.9,0.8-1.5,0.9C54.5,56.5,53.2,55.7,53,51.6z"/>
		<path class="st4" d="M90.8,31.3c-0.8,0-1.8,0.1-2.5-0.3c-0.8-0.5-0.2-1.5-0.4-2.2c-0.2-1-0.5-2-0.8-2.9c-0.1-0.3-0.3-0.7,0.2-0.9
			c2.2-1.2,4.5-2.2,7.2-1.9c0.2,0,0.4,0,0.5,0.1c1.5,0.4,3.1,1.2,3.4,2.8c0.3,1.6-0.8,3-2.2,3.9C94.6,31.1,92.8,31.4,90.8,31.3z"/>
		<path class="st4" d="M93.8,40.2c-2.6,0-4.5-0.8-6.4-1.9c-0.4-0.2-0.5-0.5-0.3-1c0.6-1.5,1-3,0.9-4.6c0-0.5,0.2-0.7,0.6-0.7
			c2.2-0.2,4.4-0.3,6.5,0.6c1.6,0.7,2.7,1.9,3.3,3.6c0.2,0.7,0.1,1.2-0.4,1.8C96.8,39.5,95.2,40.2,93.8,40.2z"/>
		<path class="st4" d="M49.6,31.9c0.2,0,0.2,0,0.2,0c2.5,0,2.5,0,2.8,2.4c0.1,1,0.4,2,0.8,2.9c0.2,0.4,0.2,0.7-0.3,1
			c-2.1,1.2-4.2,2-6.7,1.9c-0.4,0-0.8-0.1-1.2-0.2c-1.5-0.4-2.9-1.2-3.2-2.7c-0.3-1.6,0.8-2.9,2.1-3.9
			C45.8,32.2,47.7,31.9,49.6,31.9z"/>
		<path class="st4" d="M94.4,46.2c0.3,1.2-0.4,1.8-1.5,2.2c-2.3,0.9-4.3,0.3-6.2-1c-1.2-0.8-2.2-1.9-3.1-3c-0.3-0.4-0.3-0.7,0-1.1
			c1.1-1.1,2-2.3,2.5-3.8c0.2-0.4,0.4-0.6,0.9-0.5c2,0.6,3.9,1.3,5.4,2.7C93.8,43,94.5,44.4,94.4,46.2z"/>
		<path class="st4" d="M94.4,17.2c0.1,2-0.9,3.5-2.4,4.7c-1.4,1.2-3.1,1.8-4.9,2.3c-0.5,0.1-0.7,0-0.9-0.5c-0.6-1.4-1.4-2.7-2.5-3.8
			c-0.2-0.2-0.5-0.5-0.2-0.9c1.5-1.9,3.2-3.6,5.6-4.4c1.3-0.4,2.5-0.4,3.7,0.1C94.3,15.4,94.4,15.5,94.4,17.2z"/>
		<path class="st4" d="M141.1,74.7c0.9,0.6,1.8,1.2,2.8,1.8c0.5,0.3,0.5,0.8,0.5,1.2c0,4.9,0,9.9,0,14.8c0,1.7-0.3,3.7,2.6,3.7
			c-0.1,0.1-0.2,0.2-0.3,0.3c-2.5,0-5.1,0-7.6,0c0-0.1,0-0.2,0-0.2c2-0.6,2.2-0.7,2.2-2.9c0-5.6,0-11.1,0-16.7
			C141.2,76,141.3,75.4,141.1,74.7z"/>
		<path class="st3" d="M160.7,3.6C160.7,3.6,160.7,3.7,160.7,3.6C160.7,3.7,160.7,3.6,160.7,3.6z"/>
		<path class="st4" d="M35.2,96.4c0.1,0,0.1,0,0.2,0C35.3,96.6,35.3,96.4,35.2,96.4C35.2,96.4,35.2,96.4,35.2,96.4z"/>
		<path class="st2" d="M6.9,90.1c0-1.4,0-2.7,0-4.1c0-0.5,0.2-0.7,0.7-0.7c0.4,0,0.8,0,1.2,0c4.3,0,6.7,3.4,5.4,7.5
			c-0.7,2.1-3.7,3.7-5.8,3.2c-1-0.3-1.5-1-1.5-2C6.9,92.7,6.9,91.4,6.9,90.1z"/>
		<path class="st2" d="M6.9,80.5c0-1.2,0-2.3,0-3.5c0-1.4,0.8-2.1,2.2-2c1.5,0.1,2.8,1,3.3,2.6c0.5,1.5,0.5,2.9,0.1,4.4
			c-0.6,2.3-2.9,3.5-5.3,2.9c-0.5-0.1-0.4-0.5-0.4-0.8C6.9,82.9,6.9,81.7,6.9,80.5z"/>
		<path class="st2" d="M95.3,85.6c-0.3,0-0.5,0-0.8,0c-0.7,0.1-0.8-0.2-0.8-0.9c0-2.6,0-5.1,0-7.7c0-1.3,0.6-1.9,1.8-2.1
			c2.7-0.5,4.5,0.9,4.8,3.6c0.1,0.7,0.1,1.5,0.1,2.2C100.3,83.7,98.5,85.9,95.3,85.6z"/>
		<path class="st2" d="M122.1,78.5c1.2,3.1,2.3,5.9,3.4,8.7c0.2,0.5,0,0.6-0.5,0.6c-2,0-4,0-5.9,0c-0.7,0-0.6-0.2-0.4-0.7
			C119.8,84.4,120.9,81.6,122.1,78.5z"/>
		<path class="st2" d="M71,78.5c1.3,3.2,2.4,6.2,3.6,9.3c-1,0.2-2,0.1-2.9,0.1c-1.2,0-2.4,0-3.6,0c-0.5,0-0.8,0-0.5-0.6
			C68.7,84.4,69.8,81.6,71,78.5z"/>
		<path class="st2" d="M187.1,78.5c1.2,3.1,2.3,5.9,3.4,8.8c0.2,0.6-0.1,0.6-0.5,0.6c-1.9,0-3.9,0-5.8,0c-0.7,0-0.8-0.2-0.5-0.8
			C184.8,84.4,185.9,81.6,187.1,78.5z"/>
	</g>
</g>
<path class="st5" d="M325.5,2.7C325.5,2.7,325.4,2.7,325.5,2.7C325.4,2.7,325.5,2.7,325.5,2.7z"/>
<g>
	<path class="st5" d="M18.4,4C24.9,4,29.8,5.2,34.6,7.2c0.6,0.2,0.7,0.5,0.7,1.1c-0.4,3.8-0.7,7.6-1,11.4c0,0.4,0,0.8-0.6,0.8
		c-0.6,0-0.6-0.4-0.6-0.8c-0.3-3.2-1.3-6.2-3.4-8.7c-3.5-4.2-8-6.4-13.6-5.8c-3.3,0.3-5.3,2.4-5.9,5.7c-0.9,4.7,0.9,8.3,4.4,11.3
		c1.8,1.5,3.9,2.6,6,3.8c3.9,2.2,7.8,4.3,11.1,7.5c4.2,4.1,6.1,9.1,5.3,15c-0.7,5-3.7,7.9-8.3,9.5c-5.2,1.7-10.4,1.5-15.6,0.5
		c-2.8-0.5-5.6-1.4-8.3-2.4c-0.7-0.3-0.9-0.6-0.8-1.3c0.4-3.8,0.7-7.5,1-11.3c0-0.4,0-0.8,0.6-0.7c0.7,0,0.5,0.5,0.5,0.8
		c0.3,2.9,1.1,5.7,2.8,8.1c2.9,4,6.8,6.1,11.7,6.5c4.5,0.4,8-2.4,9.1-7c1.1-4.7-0.4-8.5-3.8-11.7c-3.3-3.1-7.2-5.4-11.2-7.5
		c-2.2-1.2-4.4-2.3-6.2-4.1C5,24.3,3,20.2,3.3,15.1c0.2-4.1,4-8.4,8.7-10C14.5,4.3,17,3.9,18.4,4z"/>
	<path class="st5" d="M106.7,4.2c2.7,1.8,5.5,3.5,8.2,5.3c0.5,0.3,0.4,0.7,0.4,1.1c0,6.4,0,12.8,0,19.2c0,4.7,0,9.4,0.4,14.1
		c0.2,2.5,0.8,5,2.2,7.2c1.8,3,4.5,4.6,8,4.8c2.4,0.2,4.8,0,7.1-0.7c5.6-1.7,8.6-5.7,9.8-11.2c0.5-2.2,0.7-4.4,0.7-6.6
		c0-7.6,0.1-15.2,0-22.7c-0.1-4.7-2.7-8.2-6.6-9.3c-0.6-0.2-1.3-0.3-1.9-0.3c-0.4,0-0.7-0.1-0.7-0.6c0-0.5,0.3-0.5,0.7-0.5
		c1.7,0,3.4,0,5.2,0c4.2,0,8.5,0,12.7,0c0.4,0,0.9-0.2,0.9,0.5c0,0.6-0.4,0.5-0.8,0.6c-4.3,0.5-7.6,3.8-8.2,8.4
		c-0.1,1-0.2,2.1-0.2,3.1c0,7.4,0,14.8-0.1,22.2c0,3.7-0.5,7.4-1.8,11c-1.8,5.2-5.5,8.1-10.9,9c-3.7,0.6-7.3,0.7-11-0.1
		c-7-1.5-11.1-6-12.6-12.9c-0.6-2.5-0.8-4.9-0.8-7.4c0-9.9,0-19.8,0-29.7c0-1.5-0.1-3-0.9-4.3C106.5,4.3,106.6,4.2,106.7,4.2z"/>
	<path class="st5" d="M159.5,4.3c0.4-0.2,0.6,0.1,0.9,0.3c2.6,1.6,5.2,3.2,7.8,4.7c0.6,0.4,0.7,0.8,0.7,1.4c0,13.9,0,27.8,0,41.7
		c0,3.9,1.9,5.7,5.7,5.7c2.9,0,5.8-0.1,8.6-1c5.7-1.8,9-5.8,11-11.2c0.3-0.8,0.6-1.6,0.8-2.5c0.2-1,0.8-0.9,1.4-0.8
		c0.8,0.1,0.4,0.7,0.3,1.1c-0.5,4.8-1,9.6-1.4,14.4c-0.1,0.7-0.3,0.9-1,0.9c-13.1,0-26.2,0-39.3,0c-0.3,0-0.9,0.3-0.9-0.5
		c0-0.8,0.6-0.5,1-0.6c0.1,0,0.3,0,0.4,0c3.8-0.2,5.3-1.8,5.3-5.5c0-14.7,0-29.4,0-44.1C160.5,7,160.4,5.5,159.5,4.3L159.5,4.3z"/>
	<path class="st6" d="M13.8,83.5c1,0.3,2,0.5,2.8,0.8c1.9,0.7,3.2,2,3.4,4.1c0.2,2.2-0.7,4-2.5,5.2c-1.3,0.8-2.7,1.3-4.2,1.3
		c-3.1,0.1-6.3,0-9.5,0c-0.2,0-0.4,0-0.5-0.2c0-0.1,0-0.1,0-0.1C5.8,94,5.8,94,5.8,91.3c0-4.7,0-9.4,0-14.2c0-2.7,0-2.7-2.5-3.4
		c-0.1-0.2,0.1-0.3,0.2-0.3c3.3,0,6.6-0.2,9.9,0.1c0.6,0,1.3,0.2,1.9,0.4c1.6,0.6,2.8,1.7,3,3.5c0.3,2-0.4,3.6-2,4.8
		C15.6,82.9,14.8,83.2,13.8,83.5z M9,88.7c0,1.3,0,2.6,0,3.9c0,1,0.4,1.7,1.4,2c2.1,0.5,5.1-1.1,5.7-3.2c0.8-3.1-0.2-7.4-5.3-7.2
		c-0.4,0-0.8,0-1.2,0C9.2,84,9,84.2,9,84.7C9.1,86.1,9,87.4,9,88.7z M9,79.4c0,1.2,0,2.4,0,3.5c0,0.3-0.1,0.6,0.4,0.7
		c2.4,0.5,4.4-0.5,5.1-2.8c0.4-1.5,0.4-3-0.1-4.4c-0.5-1.5-1.6-2.4-3.2-2.5c-1.4-0.1-2.2,0.6-2.2,2C9,77.1,9,78.2,9,79.4z"/>
	<path class="st6" d="M98.5,84.7c1.9,0.6,2.9,1.8,3.6,3.2c0.6,1.2,1.1,2.4,1.5,3.6c0.5,1.7,1.2,3.2,3.4,3c0,0.6-0.4,0.4-0.6,0.4
		c-1.3,0-2.6-0.1-3.9,0c-1.1,0.1-1.8-0.4-2.2-1.3c-0.6-1.2-0.9-2.5-1.3-3.7c-0.4-1.2-0.7-2.3-1.4-3.4c-0.4-0.7-0.9-1.3-1.7-1.6
		c-1.6-0.7-2.2-0.3-2.2,1.3c0,2.2,0,4.4,0,6.7c0,0.6,0,1.2,0.3,2C93,94.2,92,93.6,91,93c-0.5-0.3-0.3-0.7-0.3-1.1
		c0-4.8,0-9.7,0-14.5c0-2.8,0-2.8-2.5-3.7c0-0.2,0.2-0.2,0.4-0.2c3.2,0,6.4-0.1,9.7,0.1c0.8,0.1,1.6,0.3,2.4,0.5
		c2.1,0.8,3.3,2.3,3.5,4.6c0.1,2.2-0.8,3.8-2.6,4.9C100.7,84.1,99.8,84.4,98.5,84.7z M93.9,79.7c0,0.9,0,1.9,0,2.8
		c0,1.9,0,1.9,1.9,1.9c2.6,0,4.3-1.5,4.6-4.1c0.1-0.9,0.1-1.9,0-2.8c-0.3-2.6-2.3-4-4.9-3.5c-1.1,0.2-1.6,0.8-1.6,1.9
		C93.9,77.2,93.9,78.4,93.9,79.7z"/>
	<path class="st6" d="M119.7,73.6c1.3-0.2,2.5,0.3,3.8,0.5c0.4,0.1,0.4,0.6,0.5,0.9c2.2,5.4,4.3,10.9,6.5,16.3
		c0.2,0.5,0.4,1.1,0.7,1.6c0.4,0.9,0.8,1.8,2,2c-2.5,0-5,0-7.6,0c2.3-1.3,2.4-1.6,1.4-4c-0.4-1-0.8-2-1.2-3.1
		c-0.2-0.5-0.4-0.8-1.1-0.8c-2,0-4,0-6,0c-0.5,0-0.8,0.1-1,0.7c-0.3,1-0.8,1.9-1,2.9c-0.6,2.1,0.2,3.5,2.4,3.9
		c0.2,0,0.5-0.1,0.5,0.4c-2.5,0-4.9,0-7.4,0c0.1-0.2,0.1-0.3,0.2-0.3c1.6-0.2,2.5-1.3,3-2.6c2.1-4.9,4.1-9.8,5.8-14.8
		C121.6,75.8,120.5,74.7,119.7,73.6L119.7,73.6z M121.7,77.4c-1.2,3-2.3,5.8-3.4,8.6c-0.2,0.6,0.1,0.6,0.5,0.6c1.9,0,3.7,0,5.6,0
		c0.7,0,0.9-0.1,0.6-0.8C123.9,83,122.9,80.3,121.7,77.4z"/>
	<path class="st6" d="M183.1,94.9c-2.6,0-5,0-7.5,0c2.6-0.6,3.2-2.8,4-4.8c1.5-3.9,2.9-7.8,4.6-11.6c0.8-1.8,0.2-3.1-0.7-4.4
		c-0.1-0.2-0.3-0.3-0.5-0.6c1,0.2,1.9,0.4,2.8,0.5c1,0,1.4,0.5,1.7,1.4c2.1,5.4,4.3,10.7,6.4,16.1c0.2,0.5,0.4,1.1,0.7,1.6
		c0.4,0.8,0.8,1.7,1.9,1.9c-2.5,0-4.9,0-7.4,0c0-0.3,0.2-0.3,0.4-0.3c1.4-0.4,1.8-1.2,1.4-2.5c-0.5-1.5-1.2-3-1.7-4.5
		c-0.2-0.5-0.5-0.6-0.9-0.5c-2.1,0-4.2,0-6.2,0c-0.4,0-0.7,0-0.8,0.5c-0.4,1.1-0.9,2.2-1.2,3.3c-0.5,2,0.3,3.2,2.3,3.7
		C182.7,94.6,182.9,94.5,183.1,94.9z M185.3,77.4c-1.2,3-2.3,5.8-3.4,8.5c-0.3,0.7,0.2,0.6,0.6,0.6c1.6,0,3.2,0,4.8,0
		c1.6,0,1.6,0,1-1.5C187.3,82.6,186.3,80.1,185.3,77.4z"/>
	<path class="st6" d="M69.5,94.9c-1,0.2-6.4,0.2-7.3,0c0-0.3,0.2-0.3,0.3-0.3c1.5-0.2,2.3-1.3,2.8-2.5c2.1-4.9,4.1-9.9,5.8-14.9
		c0.4-1.2-0.6-2.2-1.1-3.2c-0.1-0.1-0.2-0.2-0.4-0.4c1.4,0,2.6,0.4,3.8,0.6c0.4,0.1,0.4,0.5,0.6,0.8c2.2,5.4,4.3,10.8,6.5,16.2
		c0.2,0.5,0.4,1,0.6,1.5c0.4,1,0.8,2,2.1,2.3c-2.5,0-5,0-7.5,0c0.1-0.4,0.4-0.3,0.5-0.3c1.2-0.4,1.7-1.1,1.3-2.3
		c-0.5-1.6-1.2-3.2-1.8-4.8c-0.1-0.4-0.4-0.4-0.7-0.4c-2.1,0-4.3,0-6.4,0c-0.4,0-0.6,0.1-0.7,0.5c-0.4,1-0.8,2.1-1.1,3.1
		c-0.6,2.2,0.2,3.4,2.4,3.9C69.2,94.6,69.4,94.6,69.5,94.9z M71.7,77.4c-1.2,3-2.3,5.8-3.4,8.6c-0.2,0.5-0.1,0.6,0.4,0.6
		c2,0,4,0,6,0c0.4,0,0.6-0.1,0.4-0.5C74,83.2,72.9,80.4,71.7,77.4z"/>
	<path class="st6" d="M150.8,73.6c2.5,0,4.9,0,7.6,0c-0.6,0.5-1.1,0.3-1.6,0.4c-0.6,0.2-0.9,0.5-0.6,1.1c1.9,3.5,3.8,7,5.7,10.6
		c1.3-2.6,2.6-5.1,3.8-7.7c0.2-0.5,0.4-1,0.4-1.5c0.2-1.5-0.3-2.2-1.8-2.5c-0.2,0-0.4,0-0.6-0.4c2.3,0,4.6,0,6.8,0
		c-3,1.1-4.1,3.9-5.3,6.5c-0.6,1.2-1.1,2.5-1.8,3.6c-1,1.6-1.2,3.3-1.1,5.1c0.1,2-0.2,4,0.2,6.2c-1.1-0.7-2.1-1.4-3.1-2
		c-0.2-0.1-0.2-0.3-0.2-0.5c0-0.2,0-0.4,0-0.5c0.5-3.4-0.5-6.4-2.3-9.3c-1.2-1.9-2.1-4-3.2-5.9c-0.7-1.3-1.1-2.8-3.1-2.8
		C150.7,73.7,150.7,73.7,150.8,73.6z"/>
	<path class="st6" d="M36.8,94.8c0,0-0.1,0-0.1,0c-3.1-1.9-3.2-1.9-3.1-5.5c0-1.5-0.2-2.8-1-4.1c-1.8-3.2-3.5-6.5-5.2-9.7
		c-0.5-1-1.3-1.5-2.3-1.9c2.5,0,4.9,0,7.5,0c-0.3,0.5-0.8,0.3-1.2,0.4c-0.8,0.1-1.2,0.5-0.7,1.3c1.8,3.4,3.7,6.8,5.6,10.4
		c1.3-2.8,2.7-5.4,3.9-8.2c0.9-2.1,0.3-3-1.9-3.6c-0.1,0-0.2-0.1-0.3-0.2c0.9-0.3,5.8-0.3,7-0.1c0,0.1-0.1,0.2-0.1,0.2
		c-1.5,0.3-2.5,1.4-3.3,2.6c-1.9,3-3.2,6.3-4.8,9.4c-0.1,0.1-0.1,0.3-0.1,0.4c0.1,2.8-0.3,5.6,0.2,8.4
		C36.8,94.7,36.8,94.8,36.8,94.8C36.7,94.9,36.8,94.8,36.8,94.8z"/>
	<path class="st6" d="M85.3,55.2c-2,0.1-3.4-0.8-4.6-2.2c-1.2-1.4-1.9-3.2-2.4-5c-0.1-0.5,0-0.8,0.5-1c1.4-0.5,2.6-1.4,3.6-2.4
		c0.2-0.2,0.5-0.5,0.9-0.2c2,1.5,3.7,3.3,4.4,5.9c0.4,1.5,0,2.8-0.7,4.1C86.6,55.3,85.9,55.1,85.3,55.2z"/>
	<path class="st6" d="M87.9,11.7c-0.1,1.6-0.8,3-1.8,4.3c-0.3,0.4-0.7,0.8-1.1,1.2c-0.6,0.6-1.2,1.3-1.9,1.5
		c-0.9,0.3-1.3-0.8-1.9-1.3c-0.8-0.6-1.6-1-2.5-1.4c-0.4-0.2-0.6-0.4-0.5-0.9c0.6-2.1,1.4-4,3-5.6c0.5-0.5,1.1-1,1.9-1.2
		C86.5,7.3,87.6,8.1,87.9,11.7z"/>
	<path class="st6" d="M70.8,51.8c-0.1,1.5-0.3,2.9-0.9,4.3c-0.7,1.6-2,2.6-3.6,3c-0.5,0.1-0.9,0.1-1.4-0.3c-2.2-1.7-2.5-3.9-2-6.4
		c0.3-1.4,0.9-2.7,1.6-4c0.3-0.6,0.6-0.6,1.1-0.4c1.4,0.6,2.8,0.9,4.3,0.8c0.5,0,0.8,0.2,0.8,0.7C70.6,50.4,70.7,51.1,70.8,51.8z"/>
	<path class="st6" d="M50.8,31.4c-1.3,0-2.6-0.2-3.8-0.7c-0.5-0.2-1.1-0.5-1.5-0.8c-1.3-0.9-2.3-2.3-2-3.8c0.3-1.6,1.8-2.4,3.4-2.7
		c2.7-0.5,5.1,0.4,7.4,1.8c0.3,0.2,0.4,0.4,0.2,0.7c-0.7,1.5-0.9,3.1-1,4.7c0,0.4-0.2,0.6-0.6,0.6C52.3,31.2,51.6,31.3,50.8,31.4z"
		/>
	<path class="st6" d="M51.1,14.7c2.3,0.1,4.1,1.4,5.7,3.1c1.6,1.6,1.6,1.7,0.2,3.4c-0.6,0.8-1.1,1.6-1.5,2.6
		c-0.2,0.6-0.5,0.7-1.1,0.5c-2-0.6-4-1.4-5.5-3c-0.5-0.5-0.9-1.1-1.2-1.8C46.7,16.2,47.4,15,51.1,14.7z"/>
	<path class="st6" d="M51,48.5c-3.6-0.3-4.4-1.5-3.2-4.9c0.4-1.3,1.5-2.2,2.6-2.9c0.6-0.4,1.3-0.8,2-1c0.8-0.3,1.6-0.8,2.4-0.7
		c1,0.1,0.8,1.3,1.3,2c0.5,0.7,0.9,1.4,1.5,1.9c0.7,0.6,0.6,1,0.1,1.6c-1.5,1.8-3.2,3.4-5.6,3.9c-0.2,0-0.3,0.1-0.5,0.1
		C51.4,48.4,51.2,48.4,51,48.5z"/>
	<path class="st6" d="M70.7,11.1c0,0.4,0,0.5,0,0.5c0,2.4,0,2.4-2.4,2.6c-1,0.1-1.9,0.4-2.8,0.8c-0.4,0.1-0.7,0.3-1-0.2
		c-1.2-2.2-2.2-4.5-1.8-7.1c0.3-1.7,1.1-3.3,2.7-3.7c1.6-0.4,3,0.8,4,2.2C70.5,7.9,70.7,9.7,70.7,11.1z"/>
	<path class="st6" d="M56.9,7.9c1.7,0.1,3,0.7,4.1,1.9c1.4,1.5,2.1,3.3,2.7,5.3c0.2,0.6-0.1,0.7-0.5,0.9c-1.4,0.5-2.7,1.4-3.7,2.5
		c-0.2,0.2-0.4,0.5-0.8,0.2c-2.3-1.8-4.3-3.7-4.6-6.9c-0.1-0.8,0.1-1.6,0.4-2.3C55.1,8.2,55.5,7.9,56.9,7.9z"/>
	<path class="st6" d="M79.4,9c-0.1,2.1-0.8,4-1.9,5.8c-0.2,0.4-0.5,0.4-0.9,0.3c-1.4-0.6-2.9-0.9-4.4-0.9c-0.4,0-0.8,0-0.8-0.6
		c-0.2-2.1-0.2-4.2,0.6-6.2c0.7-1.7,1.9-2.8,3.7-3.3c0.6-0.2,1.1-0.1,1.6,0.3C78.7,5.6,79.4,7.1,79.4,9z"/>
	<path class="st6" d="M71.3,51.7c0-0.1,0-0.2,0-0.3c0-2.3,0-2.3,2.3-2.5c1-0.1,1.9-0.3,2.8-0.7c0.6-0.3,1-0.2,1.4,0.5
		c1,1.9,1.8,3.8,1.7,6c0,0.4-0.1,0.7-0.1,1.1c-0.4,1.6-1.2,3.1-2.7,3.4c-1.6,0.3-3-0.9-4-2.3C71.5,55.2,71.3,53.5,71.3,51.7z"/>
	<path class="st6" d="M54.1,51.3c0.3-3,2.3-5,4.6-6.8c0.4-0.3,0.6,0,0.8,0.2c1.1,1.1,2.3,1.9,3.7,2.5c0.4,0.2,0.6,0.4,0.5,0.9
		c-0.6,2-1.4,4-2.9,5.5c-0.5,0.5-1.1,1-1.9,1.2C55.5,55.8,54.4,55.1,54.1,51.3z"/>
	<path class="st6" d="M90.8,31.3c-0.5,0-1.4,0.1-2.1-0.3c-0.8-0.5-0.2-1.4-0.4-2.2c-0.2-1-0.5-1.9-0.8-2.9c-0.1-0.3-0.3-0.6,0.2-0.9
		c2.2-1.2,4.4-2.1,7-1.8c0.2,0,0.4,0,0.5,0.1c1.5,0.4,3.1,1.2,3.3,2.7c0.3,1.5-0.8,2.9-2.1,3.8C94.8,31,93,31.3,90.8,31.3z"/>
	<path class="st6" d="M91.2,31.9c2.2-0.1,4.5,0.2,6,2c2.3,2.6,2,4-1.2,5.6c-1.6,0.8-3.4,0.5-5.1,0c-0.4-0.1-0.9-0.3-1.3-0.5
		C87.3,38,87.3,38,88,35.7c0.3-0.9,0.4-1.7,0.4-2.6c-0.1-0.9,0.3-1.2,1.1-1.2C90,31.9,90.6,31.9,91.2,31.9z"/>
	<path class="st6" d="M48,39.9c-1.5,0.1-3-0.6-4.2-2c-0.5-0.6-0.6-1.2-0.3-1.9c0.9-2.6,2.9-3.7,5.4-4.1c1.3-0.2,2.6-0.1,3.9,0
		c0.6,0,0.8,0.3,0.8,0.9c0,1.5,0.3,3,0.9,4.4c0.2,0.4,0.2,0.6-0.3,0.9C52.4,39.1,50.6,39.9,48,39.9z"/>
	<path class="st6" d="M94.6,45.6c0,1.8-0.1,2-1.8,2.6c-2.2,0.8-4.1,0.1-5.9-1.2c-1.1-0.8-2-1.7-2.8-2.8c-0.4-0.5-0.3-0.8,0.1-1.2
		c1-1,1.8-2.2,2.4-3.5c0.2-0.4,0.4-0.7,1-0.5c1.9,0.6,3.8,1.3,5.3,2.7C94,42.6,94.7,43.9,94.6,45.6z"/>
	<path class="st6" d="M94.6,17.6c0.1,1.5-0.5,2.7-1.5,3.8c-1.6,1.6-3.6,2.4-5.7,3c-0.5,0.1-0.7,0-0.8-0.4c-0.6-1.4-1.4-2.7-2.5-3.8
		c-0.2-0.2-0.5-0.4-0.2-0.8c1.5-1.9,3.2-3.7,5.7-4.4c1.1-0.3,2.3-0.3,3.4,0.1C94.5,15.6,94.7,15.8,94.6,17.6z"/>
	<path class="st6" d="M140.2,73.5c1,0.7,1.9,1.3,2.9,1.9c0.5,0.3,0.4,0.7,0.4,1.1c0,4.9,0,9.7,0,14.6c0,2.7,0,2.7,2.5,3.8
		c-2.7,0-5.2,0-7.7,0c0.2-0.4,0.5-0.3,0.7-0.3c1-0.2,1.5-0.8,1.5-1.8c0-6,0-12,0-18C140.4,74.4,140.3,74.1,140.2,73.5z"/>
	<polygon class="st6" points="119.7,73.6 119.7,73.6 119.7,73.6 	"/>
	<path class="st6" d="M36.7,94.9c0.1,0,0.1,0,0.2,0C36.9,95,36.8,94.8,36.7,94.9C36.8,94.8,36.7,94.9,36.7,94.9z"/>
</g>
<g>
</g>
<g>
</g>
<g>
</g>
<g>
</g>
<g>
</g>
<g>
</g>
</svg>
